<svg xmlns="http://www.w3.org/2000/svg" width="80" height="56" viewBox="0 0 80 56"><g><g><path fill="#4d4d4d" d="M60.598 11.135a.846.846 0 1 1 0-1.693.846.846 0 0 1 0 1.693z"/></g><g><path fill="#4d4d4d" d="M45.828 47.523a1.231 1.231 0 1 1 0-2.463 1.231 1.231 0 0 1 0 2.463z"/></g><g><path fill="#4d4d4d" d="M41.058 41.523a1.23 1.23 0 1 1 0-2.462 1.23 1.23 0 0 1 0 2.462z"/></g><g><path fill="#4d4d4d" d="M38.98 29.367a1.076 1.076 0 1 1 0-2.153 1.076 1.076 0 1 1 0 2.153z"/></g><g><path fill="#4d4d4d" d="M38.442 47.754a1.462 1.462 0 1 1 0-2.924 1.462 1.462 0 0 1 0 2.924z"/></g><g><path fill="#4d4d4d" d="M51.136 23.136a.846.846 0 1 1-.001-1.692.846.846 0 0 1 0 1.692z"/></g><g><path fill="#4d4d4d" d="M60.598 47.139a.847.847 0 1 1 .001-1.693.847.847 0 0 1 0 1.693z"/></g><g><path fill="#4d4d4d" d="M53.213 47.37a1.077 1.077 0 1 1 0-2.154 1.077 1.077 0 0 1 0 2.153z"/></g><g><path fill="#4d4d4d" d="M33.673 41.753a1.462 1.462 0 1 1-.001-2.924 1.462 1.462 0 0 1 0 2.924z"/></g><g><path fill="#4d4d4d" d="M55.829 41.138a.846.846 0 1 1-.001-1.692.846.846 0 0 1 0 1.692z"/></g><g><path fill="#4d4d4d" d="M55.829 17.136a.846.846 0 1 1 0-1.692.846.846 0 0 1 0 1.692z"/></g><g><path fill="#4d4d4d" d="M36.288 35.523a1.231 1.231 0 1 1 .001-2.463 1.231 1.231 0 0 1 0 2.462z"/></g><g><path fill="#4d4d4d" d="M21.518 35.983a1.692 1.692 0 1 1 0-3.384 1.692 1.692 0 0 1 0 3.384z"/></g><g><path fill="#4d4d4d" d="M16.748 29.983a1.693 1.693 0 1 1 0-3.385 1.693 1.693 0 0 1 0 3.385z"/></g><g><path fill="#4d4d4d" d="M31.057 47.984a1.693 1.693 0 1 1 0-3.385 1.693 1.693 0 0 1 0 3.385z"/></g><g><path fill="#4d4d4d" d="M16.286 48.37a2.077 2.077 0 1 1 0-4.155 2.077 2.077 0 0 1 0 4.154z"/></g><g><path fill="#4d4d4d" d="M11.517 42.37a2.078 2.078 0 1 1 .001-4.156 2.078 2.078 0 0 1-.001 4.155z"/></g><g><path fill="#4d4d4d" d="M14.132 36.138a1.846 1.846 0 1 1 0-3.693 1.846 1.846 0 0 1 0 3.693z"/></g><g><path fill="#4d4d4d" d="M18.902 42.138a1.845 1.845 0 1 1-.001-3.691 1.845 1.845 0 0 1 .001 3.69z"/></g><g><path fill="#4d4d4d" d="M24.133 29.752a1.462 1.462 0 1 1 0-2.923 1.462 1.462 0 0 1 0 2.923z"/></g><g><path fill="#4d4d4d" d="M31.519 29.521a1.23 1.23 0 1 1-.001-2.46 1.23 1.23 0 0 1 0 2.46z"/></g><g><path fill="#4d4d4d" d="M28.903 35.753a1.462 1.462 0 1 1 0-2.924 1.462 1.462 0 0 1 0 2.924z"/></g><g><path fill="#4d4d4d" d="M26.287 41.984a1.692 1.692 0 1 1 0-3.384 1.692 1.692 0 0 1 0 3.384z"/></g><g><path fill="#4d4d4d" d="M23.672 48.139a1.846 1.846 0 1 1 0-3.693 1.846 1.846 0 0 1 0 3.693z"/></g><g><path fill="#4d4d4d" d="M53.213 11.366a1.077 1.077 0 1 1 0-2.153 1.077 1.077 0 0 1 0 2.153z"/></g><g><path fill="#4d4d4d" d="M18.902 18.136a1.846 1.846 0 1 1 0-3.691 1.846 1.846 0 0 1 0 3.69z"/></g><g><path fill="#4d4d4d" d="M21.518 23.982a1.692 1.692 0 1 1 0-3.384 1.692 1.692 0 0 1 0 3.384z"/></g><g><path fill="#4d4d4d" d="M14.132 24.137a1.846 1.846 0 1 1 0-3.693 1.846 1.846 0 0 1 0 3.693z"/></g><g><path fill="#4d4d4d" d="M28.903 23.752a1.462 1.462 0 1 1 0-2.924 1.462 1.462 0 0 1 0 2.924z"/></g><g><path fill="#4d4d4d" d="M26.287 17.981a1.691 1.691 0 1 1 0-3.385 1.692 1.692 0 0 1 0 3.385z"/></g><g><path fill="#4d4d4d" d="M23.672 12.135a1.845 1.845 0 1 1-.002-3.691 1.845 1.845 0 0 1 .002 3.69z"/></g><g><path fill="#4d4d4d" d="M16.286 12.366a2.078 2.078 0 1 1 .002-4.155 2.078 2.078 0 0 1-.002 4.155z"/></g><g><path fill="#4d4d4d" d="M51.136 35.138a.847.847 0 1 1 0-1.693.847.847 0 0 1 0 1.693z"/></g><g><path fill="#4d4d4d" d="M6.747 36.368a2.077 2.077 0 1 1 0-4.154 2.077 2.077 0 0 1 0 4.154z"/></g><g><path fill="#4d4d4d" d="M11.517 18.366a2.077 2.077 0 1 1 0-4.154 2.077 2.077 0 0 1 0 4.154z"/></g><g><path fill="#4d4d4d" d="M6.747 24.367a2.077 2.077 0 1 1 0-4.154 2.077 2.077 0 0 1 0 4.154z"/></g><g><path fill="#4d4d4d" d="M9.363 30.137a1.845 1.845 0 1 1-.001-3.691 1.845 1.845 0 0 1 0 3.69z"/></g><g><path fill="#4d4d4d" d="M1.977 30.367a2.077 2.077 0 1 1 0-4.154 2.077 2.077 0 0 1 0 4.154z"/></g><g><path fill="#4d4d4d" d="M45.828 11.52a1.23 1.23 0 1 1-.001-2.462 1.23 1.23 0 0 1 0 2.462z"/></g><g><path fill="#4d4d4d" d="M46.366 29.137a.846.846 0 1 1 0-1.692.846.846 0 0 1 0 1.692z"/></g><g><path fill="#4d4d4d" d="M48.443 41.37a1.077 1.077 0 1 1 0-2.154 1.077 1.077 0 0 1 0 2.153z"/></g><g><path fill="#4d4d4d" d="M43.674 23.367a1.077 1.077 0 1 1 0-2.153 1.077 1.077 0 0 1 0 2.153z"/></g><g><path fill="#4d4d4d" d="M48.443 17.366a1.077 1.077 0 1 1 0-2.153 1.077 1.077 0 0 1 0 2.153z"/></g><g><path fill="#4d4d4d" d="M38.442 11.751a1.463 1.463 0 1 1 .002-2.925 1.463 1.463 0 0 1-.002 2.925z"/></g><g><path fill="#4d4d4d" d="M33.673 17.751a1.462 1.462 0 1 1 0-2.924 1.462 1.462 0 0 1 0 2.924z"/></g><g><path fill="#4d4d4d" d="M36.288 23.52a1.23 1.23 0 1 1 0-2.46 1.23 1.23 0 0 1 0 2.46z"/></g><g><path fill="#4d4d4d" d="M31.057 11.981a1.693 1.693 0 1 1 0-3.385 1.693 1.693 0 0 1 0 3.385z"/></g><g><path fill="#4d4d4d" d="M41.058 17.52a1.231 1.231 0 1 1 0-2.462 1.231 1.231 0 0 1 0 2.462z"/></g><g><path fill="#4d4d4d" d="M43.674 35.368a1.077 1.077 0 1 1 0-2.153 1.077 1.077 0 0 1 0 2.153z"/></g><g><path fill="#2D3E50" d="M70.145 42.852c2.956-5.733 6.18-12.183 7.435-14.601 2.687-5.463 2.687-11.734 0-17.198-4.748-9.405-16.213-13.167-25.619-8.42-4.478 2.24-7.882 6.27-9.494 11.108-1.613 4.837-1.254 10.12.985 14.51l7.435 14.6 2.24 4.39 3.224 6.27a4.672 4.672 0 0 0 4.21 2.598 4.671 4.671 0 0 0 4.21-2.598c.09-.18 1.433-2.777 3.224-6.27z"/></g><g><path fill="#fff" d="M46.587 15.084c1.254-3.763 3.852-6.808 7.255-8.6 2.15-1.075 4.39-1.522 6.63-1.522 5.373 0 10.57 2.956 13.166 8.061 2.15 4.21 2.15 8.957 0 13.257C71.22 31.117 60.74 51.45 60.74 51.45c0 .09-.09.18-.269.18-.179 0-.269-.09-.269-.18L47.393 26.28c-1.702-3.314-1.97-7.434-.806-11.196z"/></g><g><path fill="#4d4d4d" d="M60.56 12.217a7.793 7.793 0 1 1 0 15.586 7.793 7.793 0 0 1 0-15.586z"/></g></g></svg>