<svg xmlns="http://www.w3.org/2000/svg" width="17" height="23" viewBox="0 0 17 23"><g><g><path fill="#2D3E50" d="M1.404 23.071a.88.88 0 0 1-.88-.879V.922a.88.88 0 0 1 .88-.879h14.821a.88.88 0 0 1 .879.879v21.27a.88.88 0 0 1-.879.879zm.273-1.152h14.275V1.195H1.677z"/></g><g><path fill="#2D3E50" d="M16.528 6.92H1.101V5.768h15.427z"/></g><g><path fill="#2D3E50" d="M16.528 10.958H1.101V9.806h15.427z"/></g><g><path fill="#2D3E50" d="M11.386 14.996H1.101v-1.152h10.285z"/></g><g><path fill="#2D3E50" d="M11.386 19.034H1.101v-1.152h10.285z"/></g><g><path fill="#2D3E50" d="M6.819 22.495H5.667V6.344h1.152z"/></g><g><path fill="#2D3E50" d="M11.962 22.495H10.81V6.344h1.152z"/></g><g><path fill="#4d4d4d" d="M13.286 2.365a1.005 1.005 0 1 1 .008 2.011 1.004 1.004 0 0 1-1.01-1.001V3.37c0-.551.447-1.002 1.002-1.006z"/></g><g><path fill="#4d4d4d" d="M10.908 2.54a.83.83 0 1 1-.828.834V3.37c0-.457.37-.829.828-.832z"/></g><g><path fill="#4d4d4d" d="M8.88 2.713a.656.656 0 1 1-.655.66V3.37c0-.36.291-.655.654-.657z"/></g><g><path fill="#4d4d4d" d="M7.199 2.888a.483.483 0 1 1-.481.484V3.37c0-.265.214-.481.481-.483z"/></g></g></svg>