<svg xmlns="http://www.w3.org/2000/svg" width="58" height="67" viewBox="0 0 58 67"><g><g><path fill="#2D3E50" d="M51.92 62.8H6.753l-.236 1.03c-.149.599 0 1.247.4 1.745.398.498.995.797 1.593.797h41.602c.648 0 1.246-.3 1.644-.797a2.018 2.018 0 0 0 .4-1.744z"/></g><g><path fill="#2D3E50" d="M55.32 57.38H3.353l-.06.268c-.217.859-.004 1.798.567 2.513.57.712 1.426 1.136 2.291 1.136h46.313c.914 0 1.77-.413 2.347-1.136.571-.715.783-1.654.571-2.501z"/></g><g><path fill="#2D3E50" d="M57.93 52.874c.186.749 0 1.561-.5 2.185a2.634 2.634 0 0 1-2.06.999H3.241c-.749 0-1.498-.375-1.998-.999-.499-.624-.687-1.436-.499-2.185l5.618-24.659c.312-1.187 1.311-1.998 2.56-1.998h22.334l-3.275-6.43c-1.56-3.059-1.81-6.742-.686-10.114 1.123-3.37 3.495-6.18 6.617-7.74 6.555-3.309 14.546-.687 17.855 5.868a13.486 13.486 0 0 1 0 11.986c-.604 1.165-1.865 3.673-3.267 6.43h1.25c1.248 0 2.247.811 2.56 1.998zM39.656 35.956c0 .063.062.125.187.125s.187-.062.187-.125c0 0 7.304-14.172 8.99-17.543 1.498-2.996 1.498-6.305 0-9.239-1.81-3.559-5.432-5.618-9.177-5.618-1.56 0-3.122.311-4.62 1.061-2.372 1.248-4.183 3.37-5.057 5.992-.81 2.622-.624 5.494.562 7.804zm15.15 17.043l-1.06-4.62-.812-3.809-3.497-15.295H46.94l-.353.688-1.498 3.058c-1.249 2.435-2.185 4.246-2.248 4.371a3.256 3.256 0 0 1-2.934 1.81 3.257 3.257 0 0 1-2.934-1.81l-2.247-4.371-1.56-3.058-.35-.688H9.296l-5.43 23.724z"/></g><g><path fill="#4d4d4d" d="M39.906 7.612a5.43 5.43 0 1 1 0 10.862 5.43 5.43 0 0 1 0-10.862z"/></g><g><path fill="#4d4d4d" d="M17.811 30.155a2.188 2.188 0 0 0-2.188 2.18c0 1.194.967 2.18 2.171 2.18a2.174 2.174 0 0 0 2.188-2.172v-.008a2.184 2.184 0 0 0-2.171-2.18z"/></g><g><path fill="#4d4d4d" d="M24.692 33.597a1.952 1.952 0 1 0-.016 3.906 1.949 1.949 0 0 0 1.961-1.945v-.008c0-1.07-.867-1.945-1.945-1.953z"/></g><g><path fill="#4d4d4d" d="M31.573 37.038c-.953 0-1.733.773-1.733 1.727 0 .946.766 1.726 1.72 1.726a1.723 1.723 0 0 0 1.733-1.72v-.006a1.73 1.73 0 0 0-1.72-1.727z"/></g><g><path fill="#4d4d4d" d="M38.455 40.48a1.5 1.5 0 1 0-.012 2.999 1.497 1.497 0 0 0 1.506-1.493v-.006c0-.821-.666-1.493-1.494-1.5z"/></g><g><path fill="#4d4d4d" d="M45.335 43.922a1.272 1.272 0 1 0-.01 2.546 1.27 1.27 0 0 0 1.278-1.268v-.005c0-.698-.565-1.268-1.268-1.273z"/></g><g><path fill="#4d4d4d" d="M52.217 47.363a1.046 1.046 0 1 0 1.042 1.051v-.004a1.05 1.05 0 0 0-1.042-1.047z"/></g><g><path fill="#4d4d4d" d="M26.363 36.53a1.942 1.942 0 0 0-.702-2.653 1.933 1.933 0 0 0-2.642.698 1.932 1.932 0 0 0 .695 2.65l.006.003a1.94 1.94 0 0 0 2.643-.699z"/></g><g><path fill="#4d4d4d" d="M22.046 41.566a1.64 1.64 0 1 0-2.832-1.654 1.636 1.636 0 0 0 .59 2.243l.004.003c.778.45 1.78.188 2.238-.592z"/></g><g><path fill="#4d4d4d" d="M17.73 46.603a1.342 1.342 0 1 0-2.319-1.355 1.34 1.34 0 0 0 .482 1.837l.004.002c.637.37 1.457.155 1.833-.484z"/></g><g><path fill="#4d4d4d" d="M13.414 51.64a1.047 1.047 0 1 0-1.432.375l.004.004a1.05 1.05 0 0 0 1.428-.378z"/></g><g><path fill="#4d4d4d" d="M39.727 42.749a1.49 1.49 0 1 0-2.576-1.506 1.49 1.49 0 0 0 .536 2.041l.004.003c.708.41 1.618.171 2.036-.538z"/></g><g><path fill="#4d4d4d" d="M36.229 47.448a1.268 1.268 0 1 0-2.191-1.28 1.266 1.266 0 0 0 .455 1.735l.005.003a1.27 1.27 0 0 0 1.731-.458z"/></g><g><path fill="#4d4d4d" d="M32.731 52.148a1.045 1.045 0 1 0-1.807-1.056 1.045 1.045 0 0 0 .375 1.432l.004.002a1.05 1.05 0 0 0 1.428-.378z"/></g></g></svg>