<svg xmlns="http://www.w3.org/2000/svg" width="19" height="19" viewBox="0 0 19 19"><g><g><path fill="#4d4d4d" d="M15.15 11.787a.809.809 0 1 1-.812-.806h.005a.81.81 0 0 1 .808.806z"/></g><g><path fill="#4d4d4d" d="M15.011 9.876a.668.668 0 1 1-.671-.666h.003a.67.67 0 0 1 .668.665z"/></g><g><path fill="#4d4d4d" d="M14.87 8.245a.527.527 0 1 1-.53-.526h.003c.289 0 .526.234.528.526z"/></g><g><path fill="#4d4d4d" d="M14.73 6.894a.388.388 0 1 1-.39-.387h.003a.39.39 0 0 1 .388.387z"/></g><g><path fill="#2D3E50" d="M7.866 6.234v4.627c0 .17-.138.308-.31.308H6.016v7.094c0 .17-.138.308-.308.308H3.239a.292.292 0 0 1-.105-.02c-.004-.002-.008 0-.012-.002-.01-.004-.016-.01-.024-.015a.265.265 0 0 1-.074-.055.308.308 0 0 1-.03-.033c-.01-.013-.018-.026-.024-.04-.005-.009-.014-.02-.015-.025l-.004-.014a.354.354 0 0 1-.018-.09l-.002-.014V6.234H.77a.32.32 0 0 1-.105-.019c-.003-.002-.007-.002-.011-.002L.63 6.198a.538.538 0 0 1-.04-.025.193.193 0 0 1-.033-.03C.546 6.132.536 6.12.526 6.11a.338.338 0 0 1-.024-.04C.497 6.06.49 6.053.487 6.043.484 6.04.484 6.035.484 6.03a.218.218 0 0 1-.011-.044.232.232 0 0 1-.007-.046l-.002-.014V3.46l.002-.013a.589.589 0 0 1 .029-.117c.008-.016.019-.03.03-.046a.888.888 0 0 1 .049-.06l3.7-3.086.016-.009.026-.017a.317.317 0 0 1 .049-.024l.028-.009a.284.284 0 0 1 .065-.01l.015-.002h.004c.027 0 .053.004.079.011L15.618 3.15h2.426l.058.008a.246.246 0 0 1 .084.03c.014.006.027.015.04.023.01.01.023.02.033.031l.03.033a.326.326 0 0 1 .025.04c.004.01.017.035.018.04a.901.901 0 0 1 .02.104v2.467c0 .17-.138.308-.308.308zm0-.617V4.203L6.45 5.617zm-2.468 0V4.203L3.984 5.617zm7.916-2.467L4.99.838l.926 2.312zM3.548 5.181l1.414-1.414H3.548zm1.703-2.03l-.778-1.947-.778 1.946zm.764 2.03L7.43 3.767H6.015zM3.733 1.392L1.623 3.15h1.408zM1.08 5.182l1.415-1.415H1.08zm7.403 0l1.414-1.415H8.483zm2.467 0l1.414-1.415H10.95zm2.467 0l1.415-1.415h-1.415zm4.319-.979L16.32 5.617h1.415zm-.437-.436h-1.414v1.414zM1.517 5.617H2.93V4.203zm3.88 8.456l-1.413 1.414h1.414zm-.435-.436H3.548v1.414zm-1.414 3.881l1.414-1.414H3.548zm1.85-5.913L3.984 13.02h1.414zm-.436-.436H3.548v1.414zm.436 5.371l-1.414 1.414h1.414zm1.85-5.988v-.617H4.474a.312.312 0 0 1-.285-.19.322.322 0 0 1-.023-.118V6.234h-.617v4.318zm0-4.318H4.783v2.648l1.015-1.015a.308.308 0 0 1 .436.436L5.218 9.318h.36l.836-.835a.309.309 0 0 1 .436.437l-.4.398h.799zm1.67-.617h1.415V4.203zm2.468 0H12.8V4.203zm2.468 0h1.414V4.203z"/></g><g><path fill="#2D3E50" d="M18.661 12.791c.17 0 .308.138.308.308v1.234c0 .17-.138.308-.308.308h-8.636a.308.308 0 0 1-.309-.308v-1.234c0-.17.138-.308.309-.308zm-.309.616h-8.019v.617h8.019z"/></g></g></svg>