<svg xmlns="http://www.w3.org/2000/svg" width="82" height="72" viewBox="0 0 82 72"><g><g><path fill="none" stroke="#2D3E50" stroke-miterlimit="20" stroke-width="5" d="M74.968 19.538v0H7.1a3.931 3.931 0 0 1-3.93-3.93V7.204a3.931 3.931 0 0 1 3.93-3.93h67.868a3.931 3.931 0 0 1 3.931 3.93v8.402a3.931 3.931 0 0 1-3.93 3.931z"/></g><g><path fill="#4d4d4d" d="M69.168 7.915c1.926 0 3.504 1.563 3.504 3.491 0 1.914-1.548 3.491-3.477 3.491a3.483 3.483 0 0 1-3.505-3.477v-.014a3.498 3.498 0 0 1 3.478-3.491z"/></g><g><path fill="#4d4d4d" d="M60.79 8.52a2.897 2.897 0 0 1 2.897 2.887 2.884 2.884 0 0 1-2.875 2.886 2.88 2.88 0 0 1-2.897-2.875v-.011A2.893 2.893 0 0 1 60.79 8.52z"/></g><g><path fill="#4d4d4d" d="M52.412 9.125a2.29 2.29 0 0 1 2.29 2.281 2.28 2.28 0 0 1-2.272 2.281 2.276 2.276 0 0 1-2.29-2.272v-.009a2.286 2.286 0 0 1 2.272-2.281z"/></g><g><path fill="#4d4d4d" d="M44.035 9.73a1.676 1.676 0 1 1 .013 3.352 1.673 1.673 0 0 1-1.682-1.669v-.007c0-.919.744-1.67 1.669-1.676z"/></g><g><path fill="none" stroke="#2D3E50" stroke-miterlimit="20" stroke-width="5" d="M74.968 44.538v0H7.1a3.931 3.931 0 0 1-3.93-3.93v-8.403a3.931 3.931 0 0 1 3.93-3.93h67.868a3.931 3.931 0 0 1 3.931 3.93v8.402a3.931 3.931 0 0 1-3.93 3.931z"/></g><g><path fill="#4d4d4d" d="M69.168 32.915c1.926 0 3.504 1.563 3.504 3.491 0 1.914-1.548 3.491-3.477 3.491a3.483 3.483 0 0 1-3.505-3.477v-.014a3.498 3.498 0 0 1 3.478-3.491z"/></g><g><path fill="#4d4d4d" d="M60.79 33.52a2.897 2.897 0 0 1 2.897 2.886 2.884 2.884 0 0 1-2.875 2.887 2.88 2.88 0 0 1-2.897-2.875v-.011a2.893 2.893 0 0 1 2.875-2.887z"/></g><g><path fill="#4d4d4d" d="M52.412 34.125a2.29 2.29 0 0 1 2.29 2.281 2.28 2.28 0 0 1-2.272 2.281 2.276 2.276 0 0 1-2.29-2.272v-.009a2.286 2.286 0 0 1 2.272-2.281z"/></g><g><path fill="#4d4d4d" d="M44.035 34.73a1.676 1.676 0 1 1 .013 3.352 1.673 1.673 0 0 1-1.682-1.668v-.007c0-.92.744-1.67 1.669-1.676z"/></g><g><path fill="none" stroke="#2D3E50" stroke-miterlimit="20" stroke-width="5" d="M74.968 69.538v0H7.1a3.931 3.931 0 0 1-3.93-3.93v-8.403a3.931 3.931 0 0 1 3.93-3.93h67.868a3.931 3.931 0 0 1 3.931 3.93v8.402a3.931 3.931 0 0 1-3.93 3.931z"/></g><g><path fill="#4d4d4d" d="M69.168 57.915c1.926 0 3.504 1.563 3.504 3.491 0 1.914-1.548 3.491-3.477 3.491a3.483 3.483 0 0 1-3.505-3.477v-.014a3.498 3.498 0 0 1 3.478-3.491z"/></g><g><path fill="#4d4d4d" d="M60.79 58.52a2.897 2.897 0 0 1 2.897 2.886 2.884 2.884 0 0 1-2.875 2.887 2.88 2.88 0 0 1-2.897-2.876v-.01a2.893 2.893 0 0 1 2.875-2.887z"/></g><g><path fill="#4d4d4d" d="M52.412 59.125a2.29 2.29 0 0 1 2.29 2.281 2.28 2.28 0 0 1-2.272 2.281 2.276 2.276 0 0 1-2.29-2.272v-.009a2.286 2.286 0 0 1 2.272-2.281z"/></g><g><path fill="#4d4d4d" d="M44.035 59.73a1.676 1.676 0 1 1 .013 3.352 1.673 1.673 0 0 1-1.682-1.668v-.007c0-.92.744-1.67 1.669-1.676z"/></g></g></svg>