<?xml version="1.0" encoding="UTF-8"?>
<svg width="60px" height="50px" viewBox="0 0 60 50" version="1.1" xmlns="http://www.w3.org/2000/svg" xmlns:xlink="http://www.w3.org/1999/xlink">
    <title>icon-handshake@2x</title>
    <g id="Page-1" stroke="none" stroke-width="1" fill="none" fill-rule="evenodd">
        <g id="handshake" transform="translate(4, 1)" stroke="#0053A5" stroke-linecap="round" stroke-linejoin="round" stroke-width="1.75">
            <line x1="26.3149101" y1="8.95142898" x2="17.6163945" y2="0.144779105" id="Stroke-1"></line>
            <line x1="8.91770201" y1="27.0087299" x2="0" y2="17.9801689" id="Stroke-3"></line>
            <path d="M33.7124489,34.2762294 L38.5805066,39.2048036 C39.7957534,40.4360524 41.7684304,40.4360524 42.984561,39.2048036 C44.2006917,37.9735548 44.2006917,35.9772496 42.984561,34.7460009 L38.1165033,29.8174267" id="Stroke-5"></path>
            <path d="M29.3785694,38.8061689 L34.026557,43.5119372 C35.2426877,44.743186 37.2144808,44.743186 38.4306115,43.5119372 L38.4306115,43.5119372 C39.6467421,42.2806885 39.6467421,40.2843833 38.4306115,39.0531345 L33.7128024,34.2766768" id="Stroke-7"></path>
            <path d="M26.3833175,44.6913769 L28.6308612,46.9668606 C29.8469918,48.1981094 31.818785,48.1981094 33.0349156,46.9668606 C34.2510463,45.7356118 34.2510463,43.7393066 33.0349156,42.5080579 L29.3785694,38.8062584" id="Stroke-9"></path>
            <path d="M12.1632506,32.3910587 L9.36243815,35.226689 C8.14630753,36.4579377 6.17451435,36.4579377 4.95838373,35.226689 C3.74225311,33.9945454 3.74225311,31.999135 4.95838373,30.7678863 L7.75919619,27.932256 C8.97532681,26.7010072 10.94712,26.7010072 12.1632506,27.932256 C13.3793812,29.1635047 13.3793812,31.1598099 12.1632506,32.3910587 Z" id="Stroke-11"></path>
            <path d="M16.5673934,36.8498614 L13.766581,39.6854917 C12.5504503,40.9167405 10.5786572,40.9167405 9.36252653,39.6854917 C8.14639591,38.454243 8.14639591,36.4579377 9.36252653,35.226689 L12.163339,32.3910587 C13.3794696,31.1598099 15.3512628,31.1598099 16.5673934,32.3910587 C17.783524,33.6223074 17.783524,35.6186126 16.5673934,36.8498614 Z" id="Stroke-13"></path>
            <path d="M21.0052096,41.2745721 L18.9247071,43.3809381 C17.7085765,44.6121868 15.7367833,44.6121868 14.5206526,43.3809381 C13.304522,42.1496893 13.304522,40.1533841 14.5206526,38.9221354 L16.6011552,36.8157694 C17.8172858,35.5845207 19.789079,35.5845207 21.0052096,36.8157694 C22.2213402,38.0470182 22.2213402,40.0433234 21.0052096,41.2745721 Z" id="Stroke-15"></path>
            <path d="M25.4091756,45.7334643 L24.082568,47.0765634 C22.8664374,48.3078122 20.8946442,48.3078122 19.6785136,47.0765634 C18.462383,45.8453147 18.462383,43.8490095 19.6785136,42.6177607 L21.0051212,41.2746616 C22.2212518,40.0434129 24.193045,40.0434129 25.4091756,41.2746616 L25.4091756,41.2746616 C26.6253063,42.5059104 26.6253063,44.5022156 25.4091756,45.7334643 Z" id="Stroke-17"></path>
            <path d="M35.1428165,0 L14.5702347,20.8632238 C14.5702347,20.8632238 18.8938619,25.1036946 21.8431554,22.1177374 C24.3593792,19.5702336 27.0886025,16.8070824 27.0886025,16.8070824 L34.0742831,16.8070824 L47.3880852,30.2863928 C48.6042158,31.5176416 48.6042158,33.5139468 47.3880852,34.7460904 C46.1719546,35.9764443 44.2001614,35.9764443 42.9840308,34.7460904 L38.1168568,29.8175161" id="Stroke-19"></path>
            <line x1="45.0425263" y1="27.911765" x2="54" y2="18.8438327" id="Stroke-21"></line>
        </g>
        <g id="slices" transform="translate(-213, -1)"></g>
    </g>
</svg>