<svg xmlns="http://www.w3.org/2000/svg" width="78" height="76" viewBox="0 0 78 76"><g><g><path fill="#4d4d4d" d="M13.514 28.02a2.753 2.753 0 0 0-2.753 2.742 2.74 2.74 0 0 0 2.732 2.742 2.735 2.735 0 0 0 2.752-2.73v-.012a2.747 2.747 0 0 0-2.731-2.742z"/></g><g><path fill="#4d4d4d" d="M20.093 28.496a2.276 2.276 0 0 0-2.276 2.267 2.265 2.265 0 0 0 2.258 2.266 2.263 2.263 0 0 0 2.276-2.258v-.008a2.272 2.272 0 0 0-2.258-2.267z"/></g><g><path fill="#4d4d4d" d="M26.673 28.97c-.99 0-1.8.804-1.8 1.793a1.792 1.792 0 0 0 3.585.007v-.007c0-.981-.796-1.784-1.785-1.792z"/></g><g><path fill="#4d4d4d" d="M33.252 29.446a1.316 1.316 0 1 0 1.311 1.321v-.005c0-.72-.584-1.31-1.31-1.316z"/></g><g><path fill="#4d4d4d" d="M13.514 47.216a2.753 2.753 0 0 0-2.753 2.742 2.741 2.741 0 0 0 2.732 2.743 2.736 2.736 0 0 0 2.752-2.732v-.011a2.748 2.748 0 0 0-2.731-2.742z"/></g><g><path fill="#4d4d4d" d="M20.093 47.691a2.276 2.276 0 0 0-2.276 2.267 2.265 2.265 0 0 0 2.258 2.267 2.263 2.263 0 0 0 2.276-2.258v-.009a2.272 2.272 0 0 0-2.258-2.267z"/></g><g><path fill="#4d4d4d" d="M26.673 48.167c-.99 0-1.8.803-1.8 1.791 0 .982.797 1.792 1.786 1.792a1.788 1.788 0 0 0 1.799-1.784v-.008c0-.981-.796-1.784-1.785-1.791z"/></g><g><path fill="#4d4d4d" d="M33.252 48.643a1.315 1.315 0 1 0-.01 2.632 1.313 1.313 0 0 0 1.321-1.311v-.005c0-.721-.584-1.311-1.31-1.316z"/></g><g><path fill="#4d4d4d" d="M13.514 37.26a2.753 2.753 0 0 0-2.753 2.742 2.74 2.74 0 0 0 2.732 2.742 2.735 2.735 0 0 0 2.752-2.731v-.011a2.747 2.747 0 0 0-2.731-2.742z"/></g><g><path fill="#4d4d4d" d="M20.093 37.735a2.276 2.276 0 0 0-2.276 2.267 2.265 2.265 0 0 0 2.258 2.266 2.263 2.263 0 0 0 2.276-2.258v-.008a2.272 2.272 0 0 0-2.258-2.267z"/></g><g><path fill="#4d4d4d" d="M26.673 38.21c-.99 0-1.8.803-1.8 1.792 0 .981.797 1.791 1.786 1.791a1.787 1.787 0 0 0 1.799-1.784v-.007c0-.982-.796-1.785-1.785-1.792z"/></g><g><path fill="#4d4d4d" d="M33.252 38.685a1.316 1.316 0 1 0 1.311 1.321v-.004c0-.722-.584-1.312-1.31-1.317z"/></g><g><path fill="#4d4d4d" d="M26.607 56.455a2.753 2.753 0 0 1 2.753 2.742 2.74 2.74 0 0 1-2.732 2.742 2.735 2.735 0 0 1-2.752-2.73v-.012a2.748 2.748 0 0 1 2.731-2.742z"/></g><g><path fill="#4d4d4d" d="M20.028 56.93a2.276 2.276 0 0 1 2.276 2.268 2.265 2.265 0 0 1-2.258 2.267 2.263 2.263 0 0 1-2.276-2.26v-.007a2.272 2.272 0 0 1 2.258-2.267z"/></g><g><path fill="#4d4d4d" d="M13.448 57.406a1.79 1.79 0 1 1 .014 3.583 1.787 1.787 0 0 1-1.798-1.784v-.008c0-.98.795-1.784 1.784-1.79z"/></g><g><path fill="#2D3E50" d="M42.364 57.8v12.62c0 .619-.504 1.123-1.124 1.123H5.004a1.125 1.125 0 0 1-1.123-1.123V20.833c0-.62.504-1.123 1.123-1.123H32.94v-3.928H5.004a5.056 5.056 0 0 0-5.05 5.05V70.42a5.056 5.056 0 0 0 5.05 5.05H41.24a5.057 5.057 0 0 0 5.051-5.05V57.8z"/></g><g><path fill="#2D3E50" d="M36.027 59.764a5.056 5.056 0 0 1-5.05-5.051V5.126a5.057 5.057 0 0 1 5.05-5.052h36.236a5.057 5.057 0 0 1 5.05 5.052v49.587a5.056 5.056 0 0 1-5.05 5.051zm0-55.762c-.62 0-1.124.504-1.124 1.124v49.587c0 .619.504 1.123 1.124 1.123h36.236c.62 0 1.123-.504 1.123-1.123V5.126c0-.62-.504-1.124-1.123-1.124z"/></g><g><path fill="#4d4d4d" d="M52.772 47.194c0-1.02.82-1.85 1.849-1.85a1.85 1.85 0 1 1-1.849 1.85z"/></g><g><path fill="#4d4d4d" d="M47.04 47.023a1.858 1.858 0 0 1-.681-2.529 1.848 1.848 0 1 1 .681 2.529z"/></g><g><path fill="#4d4d4d" d="M59.671 46.336a1.849 1.849 0 0 1 .673-2.53 1.859 1.859 0 0 1 2.53.674c.51.879.207 2.018-.673 2.529-.297.17-.614.244-.932.244a1.837 1.837 0 0 1-1.598-.917z"/></g><g><path fill="#4d4d4d" d="M41.486 41.484a1.841 1.841 0 0 1 .673-2.52 1.849 1.849 0 0 1 2.529.664 1.855 1.855 0 0 1-1.597 2.781 1.856 1.856 0 0 1-1.605-.925z"/></g><g><path fill="#4d4d4d" d="M65.21 42.136a1.855 1.855 0 0 1-.672-2.53 1.853 1.853 0 0 1 2.529-.672c.88.51 1.184 1.64.673 2.528a1.855 1.855 0 0 1-1.605.918c-.31 0-.628-.074-.924-.244z"/></g><g><path fill="#4d4d4d" d="M39.445 33.911c0-1.02.82-1.849 1.849-1.849a1.84 1.84 0 0 1 1.849 1.842 1.856 1.856 0 0 1-1.842 1.857 1.852 1.852 0 0 1-1.856-1.85z"/></g><g><path fill="#4d4d4d" d="M42.137 28.854a1.845 1.845 0 0 1-.681-2.522 1.844 1.844 0 0 1 2.523-.681c.887.51 1.19 1.64.68 2.522a1.837 1.837 0 0 1-2.522.68z"/></g><g><path fill="#4d4d4d" d="M46.315 23.082a1.856 1.856 0 0 1 .673-2.533 1.85 1.85 0 1 1 .932 3.452 1.854 1.854 0 0 1-1.605-.919z"/></g><g><path fill="#4d4d4d" d="M68.799 32.805A19.419 19.419 0 0 0 55.496 19.92a1.018 1.018 0 0 0-1.29.98v12.21c0 .56.454 1.013 1.013 1.013h12.609c.684 0 1.175-.666.97-1.318z"/></g><g><path fill="#4d4d4d" d="M43.382 11.605a2.463 2.463 0 0 1 .893-3.36 2.455 2.455 0 1 1 1.236 4.58 2.46 2.46 0 0 1-2.13-1.22z"/></g><g><path fill="#4d4d4d" d="M60.66 11.605a2.462 2.462 0 0 1 .893-3.36 2.455 2.455 0 1 1 1.236 4.58 2.46 2.46 0 0 1-2.129-1.22z"/></g><g><path fill="#4d4d4d" d="M62.784 11.154H45.51v-1.57h17.274z"/></g></g></svg>