<svg xmlns="http://www.w3.org/2000/svg" width="29" height="27" viewBox="0 0 29 27"><g><g><path fill="#2D3E50" d="M10.794 13.487c.258 0 .467.209.467.467v2.095a.467.467 0 0 1-.467.467H8.697a.467.467 0 0 1-.467-.467v-2.095c0-.258.209-.467.467-.467zm-.466.933H9.163v1.163h1.165z"/></g><g><path fill="#2D3E50" d="M18.038 18.577h-1.386v7.437a.653.653 0 0 1-.653.653H3.492a.653.653 0 0 1-.653-.653v-7.437H1.453a.652.652 0 0 1-.606-.898l2.504-6.215a.652.652 0 0 1 .351-.358L9.49 8.653a.646.646 0 0 1 .51 0l5.788 2.453c.16.068.286.196.351.358l2.505 6.215a.655.655 0 0 1-.606.897zM9.745 9.964l-5.283 2.24L2.42 17.27h.486l1.82-4.513a.655.655 0 0 1 .351-.356l4.414-1.87a.66.66 0 0 1 .51 0l4.413 1.87a.65.65 0 0 1 .35.356l1.821 4.513h.486l-2.042-5.067zm5.6 7.96v-.235l-1.69-4.192-3.91-1.656-3.909 1.656-1.69 4.192v7.672h1.741v-5.044c0-.257.208-.466.466-.466h6.785c.257 0 .466.21.466.466v5.044h1.742v-7.437zM6.82 25.361h2.46v-4.577H6.82zm3.392 0h2.46v-4.577h-2.46z"/></g><g><path fill="#2D3E50" d="M28.77 25.85a.653.653 0 0 1-1.263.33l-.441-1.694-4.14-5.048-4.14 5.048-.44 1.694a.655.655 0 0 1-.797.467.652.652 0 0 1-.467-.797l3.897-14.947a.654.654 0 0 1 .632-.49h.662V8.24a1.83 1.83 0 0 1-1.046-1.046H19.51a1.822 1.822 0 0 1-1.698 1.169h-2.287a.653.653 0 0 1-.653-.653V5.373c0-.361.293-.653.653-.653h2.287c.774 0 1.435.486 1.698 1.169h1.717a1.823 1.823 0 0 1 1.699-1.17 1.822 1.822 0 1 1 .654 3.52v2.175h.662c.297 0 .557.2.632.489zM22.927 6.026a.516.516 0 1 0 0 0zm-5.114 1.03a.516.516 0 0 0 0-1.03h-1.633v1.03zm3.403 8.12h3.423l-.9-3.455h-1.622zm.189.933l1.522 1.857 1.523-1.857zm.919 2.593l-1.538-1.876-1.435 5.502zm4.18 3.626l-1.435-5.502-1.538 1.876z"/></g><g><path fill="#4d4d4d" d="M22.926 4.213a.235.235 0 1 1 .236-.235c0 .13-.106.235-.236.235z"/></g><g><path fill="#4d4d4d" d="M22.926 1.836a.578.578 0 1 1 0-1.156.578.578 0 0 1 0 1.156z"/></g><g><path fill="#4d4d4d" d="M22.926 3.155a.366.366 0 1 0 0-.732.366.366 0 0 0 0 .732z"/></g><g><path fill="#4d4d4d" d="M25.254 6.542a.236.236 0 1 1 .471-.001.236.236 0 0 1-.471 0z"/></g><g><path fill="#4d4d4d" d="M27.63 6.542a.578.578 0 1 1 1.157 0 .578.578 0 0 1-1.156 0z"/></g><g><path fill="#4d4d4d" d="M26.312 6.542a.366.366 0 1 0 .732 0 .366.366 0 0 0-.732 0z"/></g><g><path fill="#4d4d4d" d="M24.567 4.903a.235.235 0 1 1 .333-.333.235.235 0 0 1-.333.333z"/></g><g><path fill="#4d4d4d" d="M26.248 3.222a.577.577 0 1 1 .815-.817.577.577 0 0 1-.815.817z"/></g><g><path fill="#4d4d4d" d="M25.316 4.155a.365.365 0 1 0 .517-.516.365.365 0 0 0-.517.516z"/></g><g><path fill="#4d4d4d" d="M21.28 4.903a.235.235 0 1 0-.333-.333.235.235 0 0 0 .333.333z"/></g><g><path fill="#4d4d4d" d="M19.6 3.222a.577.577 0 1 0-.816-.817.577.577 0 0 0 .815.817z"/></g><g><path fill="#4d4d4d" d="M20.532 4.155a.366.366 0 1 1-.518-.518.366.366 0 0 1 .518.518z"/></g><g><path fill="#4d4d4d" d="M24.567 8.094a.235.235 0 1 0 .333.333.235.235 0 0 0-.333-.333z"/></g><g><path fill="#4d4d4d" d="M26.248 9.774a.577.577 0 1 0 .815.817.577.577 0 0 0-.815-.817z"/></g><g><path fill="#4d4d4d" d="M25.316 8.842a.365.365 0 1 1 .517.516.365.365 0 0 1-.517-.516z"/></g><g><path fill="#4d4d4d" d="M21.28 8.094a.235.235 0 1 1-.333.333.235.235 0 0 1 .333-.333z"/></g><g><path fill="#4d4d4d" d="M19.6 9.774a.577.577 0 1 1-.816.817.577.577 0 0 1 .815-.817z"/></g><g><path fill="#4d4d4d" d="M20.532 8.842a.366.366 0 1 0-.518.518.366.366 0 0 0 .518-.518z"/></g></g></svg>