<svg xmlns="http://www.w3.org/2000/svg" width="83.3" height="83.3" viewBox="0 0 83.3 83.3">
  <g id="Layer_2" data-name="Layer 2">
    <g id="Layer_1-2" data-name="Layer 1">
      <g>
        <path d="M71.22,46.2A14.15,14.15,0,0,0,59.8,37.28a17.45,17.45,0,0,0-3.54,0A14.14,14.14,0,0,0,44.81,46.2a15.13,15.13,0,0,0,2.47,14.67L58,74.65,68.76,60.87A15.13,15.13,0,0,0,71.22,46.2ZM64.05,57.33,58.1,65.07l-6-7.74a9.19,9.19,0,0,1-1.63-8.92,8.11,8.11,0,0,1,6.6-5.3h2.14a8.12,8.12,0,0,1,6.61,5.3A9.2,9.2,0,0,1,64.05,57.33Z" style="fill: #b30738"/>
        <path d="M58.1,49.12a2.86,2.86,0,1,1-.15,0h.15Z" style="fill: #4d4d4d"/>
        <path d="M68.43,0H14.88A14.88,14.88,0,0,0,0,14.88V68.43A14.88,14.88,0,0,0,14.88,83.3H68.43A14.87,14.87,0,0,0,83.3,68.43V14.88A14.88,14.88,0,0,0,68.43,0Zm8.92,29.25V68.43a8.92,8.92,0,0,1-8.92,8.92H14.88A8.92,8.92,0,0,1,6,68.43V14.88A8.93,8.93,0,0,1,14.88,6H68.43a8.92,8.92,0,0,1,8.92,8.93Z" style="fill: #b30738"/>
        <g>
          <path d="M15.94,17.43a3.51,3.51,0,0,0-3.51,3.5h0a3.49,3.49,0,0,0,3.48,3.49h0a3.48,3.48,0,0,0,3.5-3.48h0A3.5,3.5,0,0,0,15.94,17.43Z" style="fill: #4d4d4d"/>
          <path d="M33.69,19.2a2.91,2.91,0,0,0-2.9,2.89h0A2.89,2.89,0,0,0,33.67,25h0a2.89,2.89,0,0,0,2.9-2.88h0A2.91,2.91,0,0,0,33.69,19.2Z" style="fill: #4d4d4d"/>
          <path d="M51.45,21a2.29,2.29,0,0,0-2.29,2.28h0a2.29,2.29,0,0,0,2.27,2.29h0a2.29,2.29,0,0,0,2.29-2.28h0A2.28,2.28,0,0,0,51.45,21Z" style="fill: #4d4d4d"/>
          <path d="M69.2,22.74a1.68,1.68,0,0,0-1.68,1.68h0a1.67,1.67,0,0,0,1.67,1.67h0a1.66,1.66,0,0,0,1.68-1.67h0A1.68,1.68,0,0,0,69.2,22.74Z" style="fill: #4d4d4d"/>
        </g>
        <g>
          <path d="M33.13,37.08a2.89,2.89,0,0,0-5.68-1h0a2.89,2.89,0,0,0,2.33,3.35h0A2.88,2.88,0,0,0,33.13,37.08Z" style="fill: #4d4d4d"/>
          <path d="M29.33,50.12a2.3,2.3,0,0,0-1.85-2.65,2.27,2.27,0,0,0-2.64,1.84h0A2.27,2.27,0,0,0,26.68,52h0A2.28,2.28,0,0,0,29.33,50.12Z" style="fill: #4d4d4d"/>
          <path d="M25.52,63.16a1.68,1.68,0,0,0-3.3-.59h0a1.67,1.67,0,0,0,1.35,1.95h0A1.69,1.69,0,0,0,25.52,63.16Z" style="fill: #4d4d4d"/>
        </g>
      </g>
    </g>
  </g>
</svg>
