<?xml version="1.0" encoding="UTF-8"?>
<svg width="60px" height="50px" viewBox="0 0 60 50" version="1.1" xmlns="http://www.w3.org/2000/svg" xmlns:xlink="http://www.w3.org/1999/xlink">
    <title>icon-hoa@2x</title>
    <g id="Page-1" stroke="none" stroke-width="1" fill="none" fill-rule="evenodd">
        <g id="HOA" transform="translate(6, 1)" stroke="#0053A5" stroke-linecap="round" stroke-linejoin="round" stroke-width="1.75">
            <path d="M33.4923971,33.3833393 C33.305233,33.0771308 33.1041803,32.7801813 32.8892392,32.4944749" id="Stroke-1"></path>
            <path d="M13.9431343,34.0566673 C19.4886164,39.6014881 28.5115159,39.6014881 34.0563366,34.0566673 C39.6018187,28.5111852 39.6018187,19.4882857 34.0563366,13.943465 C28.5115159,8.39798286 19.4886164,8.39798286 13.9431343,13.943465 C8.39765218,19.4882857 8.39765218,28.5111852 13.9431343,34.0566673 Z" id="Stroke-3"></path>
            <path d="M19.0607843,19.1611122 C19.0607843,22.1067982 21.448946,24.4942985 24.3939706,24.4942985 C27.3396566,24.4942985 29.7278183,22.1067982 29.7278183,19.1611122 C29.7278183,16.2154262 27.3396566,13.8279258 24.3939706,13.8279258 C21.448946,13.8279258 19.0607843,16.2154262 19.0607843,19.1611122 Z" id="Stroke-5"></path>
            <path d="M32.8894376,32.4944749 C30.862377,29.7954752 27.6349527,28.0501529 24.0001323,28.0501529 C19.9797404,28.0501529 16.4580121,30.1850147 14.5070076,33.3833393" id="Stroke-7"></path>
            <path d="M48,26.6665932 L48,21.3334068 C48,20.351291 47.204387,19.555678 46.2222712,19.555678 L44.3750999,19.555678 C43.6013117,19.555678 42.9095318,19.0570145 42.685993,18.3162942 C42.3209237,17.1073328 41.8368101,15.9274711 41.2329907,14.7945658 C40.8705668,14.1146904 41.0101133,13.2754278 41.5550718,12.7304693 L42.8559619,11.4289179 C43.5503872,10.7351539 43.5503872,9.60886219 42.8559619,8.91509824 L39.0849018,5.14337678 C38.3904765,4.44961283 37.2648461,4.44961283 36.5704208,5.14337678 L35.2721761,6.44162143 C34.7258949,6.98790267 33.885971,7.12612637 33.2047728,6.76171843 C32.0811265,6.16054452 30.9025876,5.67312409 29.6823831,5.304748 C28.9416628,5.08120918 28.444322,4.3894293 28.444322,3.6156411 L28.444322,1.77772879 C28.444322,0.795612996 27.648709,0 26.6665932,0 L21.3334068,0 C20.351291,0 19.555678,0.795612996 19.555678,1.77772879 L19.555678,3.6156411 C19.555678,4.3894293 19.0576759,5.08120918 18.3176169,5.304748 C17.0967511,5.67312409 15.9182121,6.16054452 14.7945658,6.76171843 C14.114029,7.12612637 13.2734437,6.98790267 12.7271625,6.44162143 L11.4289179,5.14337678 C10.7344925,4.44961283 9.60886219,4.44961283 8.91509824,5.14337678 L5.14337678,8.91509824 C4.44895147,9.60886219 4.44895147,10.7351539 5.14337678,11.4289179 L6.44426686,12.7304693 C6.98988674,13.2754278 7.1287718,14.114029 6.76634793,14.7945658 C6.16252859,15.9274711 5.67841495,17.1066714 5.314007,18.3162942 C5.08980683,19.0570145 4.39868831,19.555678 3.62423875,19.555678 L1.77772879,19.555678 C0.795612996,19.555678 0,20.351291 0,21.3334068 L0,26.6665932 C0,27.648709 0.795612996,28.444322 1.77772879,28.444322 L3.62423875,28.444322 C4.39868831,28.444322 5.08980683,28.9429855 5.314007,29.6837058 C5.67841495,30.8926672 6.16252859,32.0725289 6.76634793,33.2054342 C7.1287718,33.8853096 6.98988674,34.7245722 6.44492822,35.2695307 L5.14337678,36.5710821 C4.44895147,37.2648461 4.44895147,38.3904765 5.14337678,39.0849018 L8.91509824,42.8559619 C9.60886219,43.5503872 10.7344925,43.5503872 11.4289179,42.8559619 L12.7271625,41.5577172 C13.2734437,41.011436 14.114029,40.8738736 14.7952272,41.2382816 C15.9188735,41.8387941 17.0967511,42.3268759 18.3176169,42.695252 C19.0576759,42.9187908 19.555678,43.6105707 19.555678,44.3836975 L19.555678,46.2222712 C19.555678,47.204387 20.351291,48 21.3334068,48 L26.6665932,48 C27.648709,48 28.444322,47.204387 28.444322,46.2222712 L28.444322,44.3836975 C28.444322,43.6105707 28.9416628,42.9181295 29.6823831,42.695252 C30.9025876,42.3262146 32.0811265,41.8387941 33.2041114,41.2382816 C33.8853096,40.8738736 34.7258949,41.011436 35.2721761,41.5577172 L36.5704208,42.8559619 C37.2648461,43.5503872 38.3904765,43.5503872 39.0849018,42.8559619 L42.8559619,39.0849018 C43.5503872,38.3904765 43.5503872,37.2648461 42.8559619,36.5710821 L41.5550718,35.2695307 C41.0094519,34.7245722 40.8705668,33.8853096 41.2329907,33.2047728 C41.8368101,32.0725289 42.3209237,30.8926672 42.685993,29.6837058 C42.9095318,28.9429855 43.6006503,28.444322 44.3750999,28.444322 L46.2222712,28.444322 C47.204387,28.444322 48,27.648709 48,26.6665932 Z" id="Stroke-9"></path>
        </g>
        <g id="slices" transform="translate(-115, -77)"></g>
    </g>
</svg>