<svg xmlns="http://www.w3.org/2000/svg" width="23" height="27" viewBox="0 0 23 27"><g><g><path fill="none" stroke="#2D3E50" stroke-miterlimit="20" stroke-width=".97" d="M13.219 17.12v0H1.849a.336.336 0 0 1-.336-.335V9.082c0-.186.15-.336.336-.336h11.37c.186 0 .336.15.336.336v7.703c0 .186-.15.336-.336.336z"/></g><g><path fill="none" stroke="#2D3E50" stroke-miterlimit="20" stroke-width="1.3" d="M21.39 4.026v0h-2v0V1.67a.34.34 0 0 0-.34-.34h-2.884a.34.34 0 0 0-.341.34v2.356H1.568a.335.335 0 0 0-.336.336v2.085c0 .185.15.336.336.336h14.257v18.543a.34.34 0 0 0 .34.341h2.885a.34.34 0 0 0 .34-.34V6.782v0h2a.336.336 0 0 0 .337-.336V4.362a.335.335 0 0 0-.336-.336z"/></g><g><path fill="#4d4d4d" d="M3.97 9.788a.878.878 0 1 0-.007 1.758.877.877 0 0 0 .883-.876v-.003a.88.88 0 0 0-.876-.88z"/></g><g><path fill="#4d4d4d" d="M6.5 9.94a.727.727 0 1 0 .724.729v-.002A.729.729 0 0 0 6.5 9.94z"/></g><g><path fill="#4d4d4d" d="M9.03 10.092a.575.575 0 1 0 .572.577v-.003a.576.576 0 0 0-.573-.574z"/></g><g><path fill="#4d4d4d" d="M11.559 10.245a.423.423 0 1 0 .42.424v-.002a.422.422 0 0 0-.42-.422z"/></g><g><path fill="#4d4d4d" d="M3.97 12.054a.88.88 0 1 0 .876.883v-.004a.88.88 0 0 0-.876-.88z"/></g><g><path fill="#4d4d4d" d="M6.5 12.207a.727.727 0 1 0 .724.729v-.002a.728.728 0 0 0-.724-.727z"/></g><g><path fill="#4d4d4d" d="M9.03 12.359a.575.575 0 1 0 .572.577v-.003a.575.575 0 0 0-.573-.574z"/></g><g><path fill="#4d4d4d" d="M11.559 12.511a.423.423 0 1 0 .42.424v-.002a.422.422 0 0 0-.42-.422z"/></g><g><path fill="#4d4d4d" d="M3.97 14.32a.88.88 0 1 0 .876.883V15.2a.88.88 0 0 0-.876-.879z"/></g><g><path fill="#4d4d4d" d="M6.5 14.473a.727.727 0 1 0 .724.73V15.2a.729.729 0 0 0-.724-.727z"/></g><g><path fill="#4d4d4d" d="M9.03 14.625a.574.574 0 1 0 .572.577V15.2a.576.576 0 0 0-.573-.575z"/></g><g><path fill="#4d4d4d" d="M11.559 14.778a.423.423 0 1 0 .42.423V15.2a.422.422 0 0 0-.42-.422z"/></g></g></svg>