<svg xmlns="http://www.w3.org/2000/svg" width="25" height="17" viewBox="0 0 25 17"><g><g><path fill="none" stroke="#2D3E50" stroke-linecap="round" stroke-linejoin="round" stroke-miterlimit="20" stroke-width=".93" d="M4.646 5.415v0l-2.343 7.103v0H6.99v0L4.646 5.415v0z"/></g><g><path fill="#2D3E50" d="M8.4 12.518a3.752 3.752 0 0 1-7.507 0z"/></g><g><path fill="none" stroke="#2D3E50" stroke-linecap="round" stroke-linejoin="round" stroke-miterlimit="20" stroke-width=".93" d="M8.4 12.518a3.752 3.752 0 0 1-7.507 0H8.4v0z"/></g><g><path fill="none" stroke="#2D3E50" stroke-linecap="round" stroke-linejoin="round" stroke-miterlimit="20" stroke-width=".93" d="M20.619 1.994v0l-2.343 7.103v0h4.686v0l-2.343-7.103v0z"/></g><g><path fill="#2D3E50" d="M24.372 9.097a3.753 3.753 0 1 1-7.506 0z"/></g><g><path fill="none" stroke="#2D3E50" stroke-linecap="round" stroke-linejoin="round" stroke-miterlimit="20" stroke-width=".93" d="M24.372 9.097a3.753 3.753 0 1 1-7.506 0h7.506v0z"/></g><g><path fill="#4d4d4d" d="M4.877 2.57a.809.809 0 1 0 .805.812v-.003a.81.81 0 0 0-.805-.81z"/></g><g><path fill="#4d4d4d" d="M8.026 2.066a.724.724 0 1 0 .722.727V2.79a.726.726 0 0 0-.722-.724z"/></g><g><path fill="#4d4d4d" d="M11.175 1.562a.64.64 0 1 0 .638.643v-.002a.643.643 0 0 0-.638-.641z"/></g><g><path fill="#4d4d4d" d="M14.323 1.058a.555.555 0 1 0 .554.559v-.003a.557.557 0 0 0-.554-.556z"/></g><g><path fill="#4d4d4d" d="M17.472.554a.472.472 0 1 0 .47.474v-.002c0-.26-.21-.47-.47-.472z"/></g><g><path fill="#4d4d4d" d="M20.62.05a.387.387 0 1 0 .387.389V.438A.389.389 0 0 0 20.62.05z"/></g></g></svg>