<svg xmlns="http://www.w3.org/2000/svg" width="27" height="23" viewBox="0 0 27 23"><g><g><path fill="#4d4d4d" d="M14.6 15.78a1.003 1.003 0 1 1-1.007-1h.004c.55 0 1 .447 1.003 1z"/></g><g><path fill="#4d4d4d" d="M14.426 13.409a.829.829 0 1 1-.833-.826h.004a.83.83 0 0 1 .829.826z"/></g><g><path fill="#4d4d4d" d="M14.252 11.385a.655.655 0 1 1-.658-.653h.002c.36 0 .653.29.656.653z"/></g><g><path fill="#4d4d4d" d="M6.41 15.78a1.003 1.003 0 1 1-1.007-1h.004c.55 0 1 .447 1.003 1z"/></g><g><path fill="#4d4d4d" d="M6.236 13.409a.829.829 0 1 1-.833-.826h.004a.83.83 0 0 1 .83.826z"/></g><g><path fill="#4d4d4d" d="M6.063 11.385a.655.655 0 1 1-.658-.653h.002c.36 0 .653.29.656.653z"/></g><g><path fill="#4d4d4d" d="M22.79 15.78a1.003 1.003 0 1 1-1.007-1h.004c.55 0 .999.447 1.003 1z"/></g><g><path fill="#4d4d4d" d="M22.616 13.409a.829.829 0 1 1-.833-.826h.004a.83.83 0 0 1 .829.826z"/></g><g><path fill="#4d4d4d" d="M22.442 11.385a.655.655 0 1 1-.658-.653h.002c.36 0 .653.29.656.653z"/></g><g><path fill="#2D3E50" d="M24.687 7.407a.864.864 0 0 1 .404.737V9.59a.864.864 0 0 1-.862.863H2.965a.864.864 0 0 1-.862-.863V8.144a.86.86 0 0 1 .404-.737l10.632-6.6a.862.862 0 0 1 .422-.126.86.86 0 0 1 .494.126zm-1.32 1.213l-9.77-6.052-9.77 6.053v.106h19.54z"/></g><g><path fill="#2D3E50" d="M25.666 18.786c.476 0 .862.386.862.862v2.586a.862.862 0 0 1-.862.862H1.528a.862.862 0 0 1-.862-.862v-2.586c0-.476.386-.862.862-.862h.575v-.575a.861.861 0 0 1 .772-.862.676.676 0 0 1 .09 0h21.264c.476 0 .862.386.862.862v.575zm-.862 1.724h-.575a.862.862 0 0 1-.862-.862v-.575H3.827v.575a.862.862 0 0 1-.862.862H2.39v.862h22.414z"/></g><g><path fill="#2D3E50" d="M13.597 4.418a1.437 1.437 0 1 0 0 2.874 1.437 1.437 0 0 0 0-2.874z"/></g></g></svg>