<?xml version="1.0" encoding="UTF-8"?>
<svg width="60px" height="50px" viewBox="0 0 60 50" version="1.1" xmlns="http://www.w3.org/2000/svg" xmlns:xlink="http://www.w3.org/1999/xlink">
    <title>icon-neighbor@2x</title>
    <g id="Page-1" stroke="none" stroke-width="1" fill="none" fill-rule="evenodd">
        <g id="neighbors" transform="translate(1, 8)" stroke="#0053A5" stroke-linejoin="round" stroke-width="1.75">
            <g id="Group-5">
                <polyline id="Stroke-1" stroke-linecap="round" points="0 11.2315012 16.6126507 0 28.999917 8.37479815"></polyline>
                <polyline id="Stroke-3" points="4.22546738 35 4.22546738 12.4808738 16.6135638 4.17791415 29 12.4808738 29 35"></polyline>
            </g>
            <polyline id="Stroke-6" points="24.0285714 17.5 24.0285714 14.1666667 18.2285714 14.1666667"></polyline>
            <polyline id="Stroke-7" points="14.0857143 17.5 14.0857143 14.1666667 8.28571429 14.1666667"></polyline>
            <polyline id="Stroke-8" points="24.0285714 24.1666667 24.0285714 20.8333333 18.2285714 20.8333333"></polyline>
            <polyline id="Stroke-9" points="14.0857143 24.1666667 14.0857143 20.8333333 8.28571429 20.8333333"></polyline>
            <polyline id="Stroke-10" points="24.0285714 31.6666667 24.0285714 28.3333333 18.2285714 28.3333333"></polyline>
            <g id="Group-17" transform="translate(8.2857, 0)">
                <polyline id="Stroke-11" points="5.68242602 35 5.68242602 27.8004349 0 27.8004349"></polyline>
                <polyline id="Stroke-13" stroke-linecap="round" points="49.7142857 11.2315012 33.0768739 0 20.6711444 8.37479815"></polyline>
                <polyline id="Stroke-15" points="20.6709782 35 20.6709782 12.4808738 33.077539 4.17791415 45.4824372 12.4808738 45.4824372 35"></polyline>
            </g>
            <polyline id="Stroke-18" points="48.8857143 17.5 48.8857143 14.1666667 43.0857143 14.1666667"></polyline>
            <polyline id="Stroke-19" points="38.9428571 17.5 38.9428571 14.1666667 33.1428571 14.1666667"></polyline>
            <polyline id="Stroke-20" points="48.8857143 24.1666667 48.8857143 20.8333333 43.0857143 20.8333333"></polyline>
            <polyline id="Stroke-21" points="38.9428571 24.1666667 38.9428571 20.8333333 33.1428571 20.8333333"></polyline>
            <polyline id="Stroke-22" points="48.8857143 31.6666667 48.8857143 28.3333333 43.0857143 28.3333333"></polyline>
            <g id="Group-27" transform="translate(0, 27.5)">
                <polyline id="Stroke-23" points="38.83365 7.21863745 38.83365 0 33.1450092 0"></polyline>
                <line x1="58" y1="7.21863745" x2="0" y2="7.21863745" id="Stroke-25" stroke-linecap="round"></line>
            </g>
        </g>
        <g id="slices" transform="translate(0, -151)"></g>
    </g>
</svg>