<?xml version="1.0" encoding="UTF-8"?>
<svg width="60px" height="50px" viewBox="0 0 60 50" version="1.1" xmlns="http://www.w3.org/2000/svg" xmlns:xlink="http://www.w3.org/1999/xlink">
    <title>icon-solar@2x</title>
    <g id="Page-1" stroke="none" stroke-width="1" fill="none" fill-rule="evenodd">
        <g id="solar" transform="translate(5, 1)" stroke="#0053A5" stroke-linecap="round" stroke-linejoin="round" stroke-width="1.75">
            <line x1="27.8612795" y1="3.81555097" x2="26.917083" y2="2.16762188" id="Stroke-1"></line>
            <line x1="42.9723333" y1="30.1876133" x2="42.0281368" y2="28.5396842" id="Stroke-3"></line>
            <line x1="22.6758522" y1="9.04030762" x2="21.0403541" y2="8.08893452" id="Stroke-4"></line>
            <line x1="48.848979" y1="24.2662168" x2="47.2134809" y2="23.3148437" id="Stroke-5"></line>
            <line x1="51" y1="16.1774499" x2="49.1107751" y2="16.1774499" id="Stroke-6"></line>
            <line x1="48.848979" y1="8.08868306" x2="47.2134809" y2="9.04005616" id="Stroke-8"></line>
            <g id="Group-13" transform="translate(34.5286, 0)">
                <line x1="8.44369552" y1="2.16737042" x2="7.49949902" y2="3.8152995" id="Stroke-9"></line>
                <line x1="0.415945592" y1="0" x2="0.415945592" y2="1.90358441" id="Stroke-11"></line>
            </g>
            <line x1="11.333515" y1="39.9679802" x2="13.2227399" y2="17.1291583" id="Stroke-14"></line>
            <line x1="24.5556767" y1="39.9679802" x2="22.6664518" y2="17.1291583" id="Stroke-15"></line>
            <g id="Group-26" transform="translate(0, 5.71)">
                <line x1="34.340464" y1="22.8384866" x2="1.54897727" y2="22.8384866" id="Stroke-16"></line>
                <path d="M33.9996381,34.2579814 C35.1667815,34.2579814 36.0544094,33.2018315 35.8630744,32.0417431 L32.7143663,13.0092518 C32.5629621,12.0914073 31.7751611,11.4191595 30.8517619,11.4191595 L5.03734658,11.4191595 C4.11394736,11.4191595 3.32614641,12.0914073 3.17474221,13.0092518 L0.0260340838,32.0417431 C-0.165300888,33.2018315 0.722327005,34.2579814 1.88947034,34.2579814 L33.9996381,34.2579814 Z" id="Stroke-18"></path>
                <polyline id="Stroke-20" points="20.7779756 41.8708941 20.7779756 34.2582328 15.1111329 34.2582328 15.1111329 41.8708941"></polyline>
                <line x1="11.333515" y1="41.8708941" x2="24.5555935" y2="41.8708941" id="Stroke-22"></line>
                <path d="M24.956981,7.61266123 C26.1915075,3.22125711 30.1904084,0 34.9446665,0 C40.68222,0 45.3333236,4.68645551 45.3333236,10.4676187 C45.3333236,15.2538217 42.1413572,19.2806027 37.7880706,20.5278654" id="Stroke-24"></path>
            </g>
        </g>
        <g id="slices" transform="translate(-213, -227)"></g>
    </g>
</svg>