<svg xmlns="http://www.w3.org/2000/svg" width="90" height="56" viewBox="0 0 90 56"><g><g><path fill="#4d4d4d" d="M61.298 4.853a.847.847 0 1 1 .001-1.694.847.847 0 0 1 0 1.693z"/></g><g><path fill="#4d4d4d" d="M46.528 41.24a1.23 1.23 0 1 1 0-2.461 1.23 1.23 0 0 1 0 2.461z"/></g><g><path fill="#4d4d4d" d="M41.758 35.24a1.23 1.23 0 1 1-.001-2.462 1.23 1.23 0 0 1 0 2.461z"/></g><g><path fill="#4d4d4d" d="M39.68 23.085a1.077 1.077 0 1 1 0-2.154 1.077 1.077 0 0 1 0 2.154z"/></g><g><path fill="#4d4d4d" d="M39.142 41.47a1.462 1.462 0 1 1 0-2.923 1.462 1.462 0 0 1 0 2.924z"/></g><g><path fill="#4d4d4d" d="M51.836 16.854a.847.847 0 1 1 0-1.694.847.847 0 0 1 0 1.694z"/></g><g><path fill="#4d4d4d" d="M61.298 40.855a.847.847 0 1 1 .001-1.693.847.847 0 0 1 0 1.694z"/></g><g><path fill="#4d4d4d" d="M53.913 41.086a1.076 1.076 0 1 1-.002-2.152 1.076 1.076 0 0 1 .002 2.152z"/></g><g><path fill="#4d4d4d" d="M34.373 35.47a1.462 1.462 0 1 1 0-2.923 1.462 1.462 0 0 1 0 2.924z"/></g><g><path fill="#4d4d4d" d="M56.529 34.855a.846.846 0 1 1-.001-1.692.846.846 0 0 1 0 1.692z"/></g><g><path fill="#4d4d4d" d="M56.529 10.852a.846.846 0 1 1-.001-1.69.846.846 0 0 1 0 1.69z"/></g><g><path fill="#4d4d4d" d="M36.988 29.24a1.231 1.231 0 1 1 0-2.464 1.231 1.231 0 0 1 0 2.463z"/></g><g><path fill="#4d4d4d" d="M22.218 29.7a1.692 1.692 0 1 1 0-3.384 1.692 1.692 0 0 1 0 3.384z"/></g><g><path fill="#4d4d4d" d="M17.448 23.7a1.692 1.692 0 1 1 0-3.384 1.692 1.692 0 0 1 0 3.384z"/></g><g><path fill="#4d4d4d" d="M31.757 41.702a1.692 1.692 0 1 1 0-3.384 1.692 1.692 0 0 1 0 3.384z"/></g><g><path fill="#4d4d4d" d="M16.986 42.086a2.077 2.077 0 1 1 0-4.154 2.077 2.077 0 0 1 0 4.154z"/></g><g><path fill="#4d4d4d" d="M12.217 36.086a2.077 2.077 0 1 1 0-4.154 2.077 2.077 0 0 1 0 4.154z"/></g><g><path fill="#4d4d4d" d="M14.832 29.855a1.846 1.846 0 1 1 0-3.693 1.846 1.846 0 0 1 0 3.693z"/></g><g><path fill="#4d4d4d" d="M19.602 35.855a1.846 1.846 0 1 1 0-3.692 1.846 1.846 0 0 1 0 3.693z"/></g><g><path fill="#4d4d4d" d="M24.833 23.469a1.462 1.462 0 1 1 0-2.924 1.462 1.462 0 0 1 0 2.924z"/></g><g><path fill="#4d4d4d" d="M32.218 23.238a1.23 1.23 0 1 1 0-2.46 1.23 1.23 0 0 1 0 2.46z"/></g><g><path fill="#4d4d4d" d="M29.603 29.47a1.462 1.462 0 1 1 0-2.924 1.462 1.462 0 0 1 0 2.924z"/></g><g><path fill="#4d4d4d" d="M26.987 35.701a1.693 1.693 0 1 1 0-3.385 1.693 1.693 0 0 1 0 3.385z"/></g><g><path fill="#4d4d4d" d="M24.372 41.855a1.846 1.846 0 1 1-.001-3.69 1.846 1.846 0 0 1 0 3.69z"/></g><g><path fill="#4d4d4d" d="M53.913 5.083a1.077 1.077 0 1 1 0-2.154 1.077 1.077 0 0 1 0 2.154z"/></g><g><path fill="#4d4d4d" d="M19.602 11.852a1.845 1.845 0 1 1-.001-3.69 1.845 1.845 0 0 1 0 3.69z"/></g><g><path fill="#4d4d4d" d="M22.218 17.7a1.692 1.692 0 1 1 0-3.385 1.692 1.692 0 0 1 0 3.384z"/></g><g><path fill="#4d4d4d" d="M14.832 17.854a1.846 1.846 0 1 1 0-3.693 1.846 1.846 0 0 1 0 3.693z"/></g><g><path fill="#4d4d4d" d="M29.603 17.469a1.462 1.462 0 1 1 0-2.924 1.462 1.462 0 0 1 0 2.924z"/></g><g><path fill="#4d4d4d" d="M26.987 11.7a1.693 1.693 0 1 1 0-3.386 1.693 1.693 0 0 1 0 3.385z"/></g><g><path fill="#4d4d4d" d="M24.372 5.853a1.846 1.846 0 1 1 0-3.693 1.846 1.846 0 0 1 0 3.692z"/></g><g><path fill="#4d4d4d" d="M16.986 6.083a2.077 2.077 0 1 1 0-4.154 2.077 2.077 0 0 1 0 4.154z"/></g><g><path fill="#4d4d4d" d="M51.836 28.855a.847.847 0 1 1 0-1.694.847.847 0 0 1 0 1.694z"/></g><g><path fill="#4d4d4d" d="M7.447 30.085a2.077 2.077 0 1 1 0-4.154 2.077 2.077 0 0 1 0 4.154z"/></g><g><path fill="#4d4d4d" d="M12.217 12.084a2.078 2.078 0 1 1 .001-4.156 2.078 2.078 0 0 1-.001 4.156z"/></g><g><path fill="#4d4d4d" d="M7.447 18.084a2.077 2.077 0 1 1 0-4.154 2.077 2.077 0 0 1 0 4.154z"/></g><g><path fill="#4d4d4d" d="M10.063 23.854a1.845 1.845 0 1 1-.002-3.691 1.845 1.845 0 0 1 .002 3.69z"/></g><g><path fill="#4d4d4d" d="M2.677 24.085a2.078 2.078 0 1 1 .002-4.156 2.078 2.078 0 0 1-.002 4.156z"/></g><g><path fill="#4d4d4d" d="M46.528 5.236a1.23 1.23 0 1 1-.001-2.46 1.23 1.23 0 0 1 0 2.46z"/></g><g><path fill="#4d4d4d" d="M47.066 22.854a.846.846 0 1 1 0-1.693.846.846 0 0 1 0 1.692z"/></g><g><path fill="#4d4d4d" d="M49.143 35.086a1.077 1.077 0 1 1 0-2.154 1.077 1.077 0 0 1 0 2.154z"/></g><g><path fill="#4d4d4d" d="M44.373 17.084a1.077 1.077 0 1 1 0-2.154 1.077 1.077 0 0 1 0 2.154z"/></g><g><path fill="#4d4d4d" d="M49.143 11.083a1.076 1.076 0 1 1 0-2.153 1.076 1.076 0 1 1 0 2.153z"/></g><g><path fill="#4d4d4d" d="M39.142 5.468a1.462 1.462 0 1 1 0-2.924 1.462 1.462 0 0 1 0 2.924z"/></g><g><path fill="#4d4d4d" d="M34.373 11.468a1.462 1.462 0 1 1-.001-2.924 1.462 1.462 0 0 1 0 2.924z"/></g><g><path fill="#4d4d4d" d="M36.988 17.238a1.231 1.231 0 1 1 0-2.463 1.231 1.231 0 0 1 0 2.463z"/></g><g><path fill="#4d4d4d" d="M31.757 5.698a1.692 1.692 0 1 1 0-3.384 1.692 1.692 0 0 1 0 3.384z"/></g><g><path fill="#4d4d4d" d="M41.758 11.237a1.23 1.23 0 1 1-.001-2.46 1.23 1.23 0 0 1 0 2.46z"/></g><g><path fill="#4d4d4d" d="M44.373 29.085a1.077 1.077 0 1 1 0-2.154 1.077 1.077 0 0 1 0 2.154z"/></g><g><path fill="#2D3E50" d="M88.117 54.64c-1.997 2.083-5.382 1.909-7.292-.261l-10.243-11.72a.787.787 0 0 1 0-.867l.26-.26-1.04-1.042a22.832 22.832 0 0 0 2.17-1.91 21.427 21.427 0 0 0 1.908-2.17l1.13 1.128.26-.26c.26-.26.607-.26.868 0l11.72 10.07c2.17 1.909 2.342 5.295.26 7.292z"/></g><g><path fill="#2D3E50" d="M70.756 6.895c8.334 8.334 8.42 21.963 0 30.383a21.43 21.43 0 0 1-30.383 0c-8.42-8.333-8.42-21.962 0-30.383 8.334-8.42 21.963-8.42 30.383 0zm-3.56 26.824c6.425-6.424 6.425-16.841 0-23.352-6.51-6.51-16.927-6.423-23.351 0-6.423 6.424-6.51 16.84 0 23.352 6.51 6.51 17.015 6.424 23.352 0z"/></g></g></svg>