<svg xmlns="http://www.w3.org/2000/svg" width="56" height="58" viewBox="0 0 56 58"><g><g><path fill="none" stroke="#2D3E50" stroke-miterlimit="20" stroke-width="3.93" d="M41.638 55.96v0h-26.68a4.326 4.326 0 0 1-4.326-4.326V21.616a4.326 4.326 0 0 1 4.326-4.325h26.68a4.325 4.325 0 0 1 4.325 4.325v30.018a4.325 4.325 0 0 1-4.325 4.326z"/></g><g><path fill="none" stroke="#2D3E50" stroke-linecap="round" stroke-miterlimit="20" stroke-width="4.71" d="M53.34 26.223v0L31.353 4.236c-1.687-1.688-4.496-1.614-6.275.165L3.258 26.223v0"/></g><g><path fill="#4d4d4d" d="M18.198 33.415a2.649 2.649 0 0 1 2.64-2.649 2.637 2.637 0 0 1 2.638 2.628 2.635 2.635 0 0 1-2.629 2.65h-.01a2.644 2.644 0 0 1-2.639-2.629z"/></g><g><path fill="#4d4d4d" d="M18.692 39.23c0-1.183.96-2.152 2.146-2.152 1.175 0 2.145.951 2.145 2.135a2.142 2.142 0 0 1-2.137 2.156h-.008a2.15 2.15 0 0 1-2.146-2.138z"/></g><g><path fill="#4d4d4d" d="M19.185 45.047c0-.912.74-1.66 1.652-1.66a1.65 1.65 0 0 1 1.652 1.647 1.649 1.649 0 0 1-1.645 1.659h-.007a1.656 1.656 0 0 1-1.652-1.646z"/></g><g><path fill="#4d4d4d" d="M19.678 50.862c0-.64.52-1.163 1.16-1.163a1.158 1.158 0 0 1 .004 2.317h-.005a1.161 1.161 0 0 1-1.159-1.154z"/></g><g><path fill="#4d4d4d" d="M33.12 33.415a2.649 2.649 0 0 1 2.64-2.649 2.637 2.637 0 0 1 2.638 2.628 2.634 2.634 0 0 1-2.629 2.65h-.01a2.645 2.645 0 0 1-2.639-2.629z"/></g><g><path fill="#4d4d4d" d="M33.614 39.23c0-1.183.96-2.152 2.146-2.152 1.175 0 2.145.951 2.145 2.135a2.142 2.142 0 0 1-2.137 2.156h-.008a2.15 2.15 0 0 1-2.146-2.138z"/></g><g><path fill="#4d4d4d" d="M34.107 45.047c0-.912.74-1.66 1.652-1.66a1.65 1.65 0 0 1 1.652 1.647 1.649 1.649 0 0 1-1.646 1.659h-.006a1.656 1.656 0 0 1-1.652-1.646z"/></g><g><path fill="#4d4d4d" d="M34.6 50.862c0-.64.52-1.163 1.16-1.163a1.158 1.158 0 0 1 .004 2.317h-.005a1.161 1.161 0 0 1-1.159-1.154z"/></g><g><path fill="#4d4d4d" d="M25.418 33.415a2.649 2.649 0 0 1 2.639-2.649 2.637 2.637 0 0 1 2.639 2.628 2.635 2.635 0 0 1-2.63 2.65h-.01a2.645 2.645 0 0 1-2.638-2.629z"/></g></g></svg>