<?xml version="1.0" encoding="UTF-8"?>
<svg width="60px" height="50px" viewBox="0 0 60 50" version="1.1" xmlns="http://www.w3.org/2000/svg" xmlns:xlink="http://www.w3.org/1999/xlink">
    <title>icon-floorplan@1x</title>
    <g id="Page-1" stroke="none" stroke-width="1" fill="none" fill-rule="evenodd">
        <g id="floorplan" transform="translate(2, 1)" stroke="#0053A5" stroke-linejoin="round" stroke-width="1.75">
            <polyline id="Stroke-1" points="32.2537187 41.5687076 39.3431165 41.5687076 39.3431165 29.7194956 34.9764701 29.7194956"></polyline>
            <polyline id="Stroke-2" points="31.346295 29.7193349 23.1220173 29.7193349 23.1220173 41.5685468 28.6235437 41.5685468"></polyline>
            <polyline id="Stroke-3" points="16.6566434 27.5543214 16.6566434 34.7892541 23.1225775 34.7892541"></polyline>
            <polyline id="Stroke-4" points="28.4537119 16.6737062 16.6567234 16.6737062 16.6567234 23.9086389"></polyline>
            <polyline id="Stroke-5" points="39.3433566 20.6613599 39.3433566 13.4264273 28.453952 13.4264273 28.453952 20.6621638"></polyline>
            <line x1="39.3433566" y1="29.7193349" x2="39.3433566" y2="24.3084091" id="Stroke-6"></line>
            <line x1="28.4537119" y1="24.3080875" x2="28.4537119" y2="29.7190133" id="Stroke-7"></line>
            <g id="Group-18">
                <path d="M47.3467409,39.3084342 C48.2639287,38.3871861 49.5316648,37.8172342 50.9306564,37.8172342 C52.3304483,37.8172342 53.5981844,38.3871861 54.5153722,39.3084342 C55.4325601,40.2296823 56,41.5030305 56,42.9082152 C56,44.3142037 55.4325601,45.5875519 54.5153722,46.5088 C53.5981844,47.4300481 52.3304483,48 50.9306564,48 L5.06886341,48 C3.66907149,48 2.40213576,47.4300481 1.48494792,46.5088 C0.567760081,45.5875519 0.000320135373,44.3142037 0.000320135373,42.9082152 C0.000320135373,41.5030305 0.567760081,40.2296823 1.48494792,39.3084342 C2.40213576,38.3871861 3.66907149,37.8172342 5.06886341,37.8172342 C6.46865532,37.8172342 7.73559105,38.3871861 8.65357923,39.3084342" id="Stroke-8" stroke-linecap="round"></path>
                <path d="M8.65325909,1.49120001 C7.73607125,0.569951918 6.46833518,0 5.06934361,0 C3.6695517,0 2.40181562,0.569951918 1.48462779,1.49120001 C0.567439946,2.4124481 0,3.68499237 0,5.09098095 L0,42.9087779" id="Stroke-10" stroke-linecap="round"></path>
                <line x1="44.9457256" y1="7.7708804" x2="11.0545945" y2="7.7708804" id="Stroke-12"></line>
                <path d="M47.3467409,39.3084342 L47.3467409,1.49144118 C48.2639287,0.570193082 49.5316648,0.000241164422 50.9306564,0.000241164422 C52.3304483,0.000241164422 53.5981844,0.570193082 54.5153722,1.49144118 C55.4325601,2.41268927 56,3.68523354 56,5.09122212 L56,42.9082152" id="Stroke-14" stroke-linecap="round"></path>
                <line x1="8.65325909" y1="1.49120001" x2="8.65325909" y2="39.3081931" id="Stroke-16"></line>
            </g>
        </g>
        <g id="slices" transform="translate(-115, 0)"></g>
    </g>
</svg>