<?xml version="1.0" encoding="UTF-8"?>
<svg width="60px" height="50px" viewBox="0 0 60 50" version="1.1" xmlns="http://www.w3.org/2000/svg" xmlns:xlink="http://www.w3.org/1999/xlink">
    <title>icon-legal@2x</title>
    <g id="Page-1" stroke="none" stroke-width="1" fill="none" fill-rule="evenodd">
        <g id="legal" transform="translate(6, 1)" stroke="#0053A5" stroke-linecap="round" stroke-linejoin="round" stroke-width="1.75">
            <polygon id="Stroke-1" points="36.1911028 14.450436 22.1760284 28.0847961 14.2044977 20.330591 28.2203758 6.69544893"></polygon>
            <g id="Group-12">
                <path d="M48.1495239,39.7183712 L48.1495239,39.7183712 C47.0155558,40.8215355 45.1767755,40.8215355 44.0428073,39.7183712 L27.1297251,23.2655084 L31.2372453,19.2703492 L48.1495239,35.7232121 C49.283492,36.8263764 49.283492,38.6152069 48.1495239,39.7183712 Z" id="Stroke-2"></path>
                <polygon id="Stroke-4" points="24.8054521 30.6429489 20.5516653 34.7811833 7.32176934 21.9106725 11.5755562 17.7724382"></polygon>
                <polygon id="Stroke-6" points="43.0741526 12.8705108 38.8203658 17.0087451 25.5904699 4.1374525 29.8442567 0"></polygon>
                <path d="M34.184598,42.133918 L5.76145814,42.133918 C4.96743936,42.133918 4.32370551,42.760165 4.32370551,43.5326146 L4.32370551,47.6090842 L35.6223507,47.6090842 L35.6223507,43.5326146 C35.6223507,42.760165 34.9786168,42.133918 34.184598,42.133918 Z" id="Stroke-8"></path>
                <line x1="0" y1="47.6090842" x2="39.9460562" y2="47.6090842" id="Stroke-10"></line>
            </g>
        </g>
        <g id="slices" transform="translate(-118, -228)"></g>
    </g>
</svg>