<svg xmlns="http://www.w3.org/2000/svg" width="85" height="91" viewBox="0 0 85 91"><g><g><path fill="none" stroke="#2D3E50" stroke-miterlimit="20" stroke-width="5" d="M53.401 81.843v0H7.263a3.932 3.932 0 0 1-3.93-3.932V14.774a3.931 3.931 0 0 1 3.93-3.931h46.138a3.931 3.931 0 0 1 3.931 3.93v63.138a3.932 3.932 0 0 1-3.93 3.932z"/></g><g><path fill="#fff" d="M61.401 73.843H15.263a3.932 3.932 0 0 1-3.93-3.932V6.774a3.931 3.931 0 0 1 3.93-3.931h46.138a3.931 3.931 0 0 1 3.931 3.93v63.138a3.932 3.932 0 0 1-3.93 3.932z"/></g><g><path fill="none" stroke="#2D3E50" stroke-miterlimit="20" stroke-width="5" d="M61.401 73.843v0H15.263a3.932 3.932 0 0 1-3.93-3.932V6.774a3.931 3.931 0 0 1 3.93-3.931h46.138a3.931 3.931 0 0 1 3.931 3.93v63.138a3.932 3.932 0 0 1-3.93 3.932z"/></g><g><path fill="#4d4d4d" d="M26.098 15.925c-1.927 0-3.505 1.564-3.505 3.492 0 1.913 1.549 3.49 3.478 3.49a3.484 3.484 0 0 0 3.506-3.477v-.013a3.5 3.5 0 0 0-3.48-3.492z"/></g><g><path fill="#4d4d4d" d="M34.476 16.53a2.898 2.898 0 0 0-2.898 2.887 2.884 2.884 0 0 0 2.876 2.885 2.88 2.88 0 0 0 2.897-2.875v-.01a2.893 2.893 0 0 0-2.875-2.887z"/></g><g><path fill="#4d4d4d" d="M42.853 17.136a2.289 2.289 0 0 0-2.29 2.28 2.28 2.28 0 0 0 2.272 2.282 2.276 2.276 0 0 0 2.29-2.272v-.01a2.285 2.285 0 0 0-2.272-2.28z"/></g><g><path fill="#4d4d4d" d="M51.231 17.74a1.676 1.676 0 1 0 1.669 1.683v-.006a1.68 1.68 0 0 0-1.669-1.677z"/></g><g><path fill="#4d4d4d" d="M26.098 40.366c-1.927 0-3.505 1.564-3.505 3.492 0 1.913 1.549 3.491 3.478 3.491a3.484 3.484 0 0 0 3.506-3.477v-.014a3.5 3.5 0 0 0-3.48-3.492z"/></g><g><path fill="#4d4d4d" d="M34.476 40.972a2.898 2.898 0 0 0-2.898 2.887 2.884 2.884 0 0 0 2.876 2.886 2.88 2.88 0 0 0 2.897-2.876v-.01a2.893 2.893 0 0 0-2.875-2.887z"/></g><g><path fill="#4d4d4d" d="M42.853 41.577a2.289 2.289 0 0 0-2.29 2.281 2.28 2.28 0 0 0 2.272 2.281 2.276 2.276 0 0 0 2.29-2.272v-.009a2.286 2.286 0 0 0-2.272-2.28z"/></g><g><path fill="#4d4d4d" d="M51.231 42.183a1.676 1.676 0 1 0-.013 3.352 1.673 1.673 0 0 0 1.682-1.67v-.006c0-.92-.744-1.67-1.669-1.676z"/></g><g><path fill="#4d4d4d" d="M26.098 27.689c-1.927 0-3.505 1.564-3.505 3.492 0 1.913 1.549 3.49 3.478 3.49a3.484 3.484 0 0 0 3.506-3.476v-.014a3.5 3.5 0 0 0-3.48-3.492z"/></g><g><path fill="#4d4d4d" d="M34.476 28.294a2.898 2.898 0 0 0-2.898 2.887 2.884 2.884 0 0 0 2.876 2.886 2.88 2.88 0 0 0 2.897-2.876v-.01a2.893 2.893 0 0 0-2.875-2.887z"/></g><g><path fill="#4d4d4d" d="M42.853 28.9a2.29 2.29 0 0 0-2.29 2.28 2.28 2.28 0 0 0 2.272 2.281 2.276 2.276 0 0 0 2.29-2.272v-.009a2.286 2.286 0 0 0-2.272-2.28z"/></g><g><path fill="#4d4d4d" d="M51.231 29.505a1.676 1.676 0 1 0-.013 3.352 1.673 1.673 0 0 0 1.682-1.67v-.006c0-.92-.744-1.67-1.669-1.676z"/></g><g><path fill="#4d4d4d" d="M42.77 52.13c1.927 0 3.505 1.565 3.505 3.492 0 1.914-1.549 3.492-3.478 3.492a3.484 3.484 0 0 1-3.505-3.478v-.014a3.5 3.5 0 0 1 3.478-3.491z"/></g><g><path fill="#4d4d4d" d="M34.393 52.735a2.897 2.897 0 0 1 2.897 2.887 2.884 2.884 0 0 1-2.875 2.886 2.88 2.88 0 0 1-2.897-2.875v-.01a2.893 2.893 0 0 1 2.875-2.888z"/></g><g><path fill="#4d4d4d" d="M26.015 53.34a2.29 2.29 0 0 1 2.29 2.282 2.28 2.28 0 0 1-2.272 2.28 2.276 2.276 0 0 1-2.29-2.271v-.01a2.286 2.286 0 0 1 2.272-2.28z"/></g><g><path fill="#fff" d="M64.257 88.004l-2.92 1.263-2.39-2.106-3.169.3-1.622-2.74-3.107-.695-.694-3.106-2.74-1.621.3-3.17-2.106-2.388 1.264-2.922-1.264-2.92 2.105-2.39-.299-3.168 2.74-1.621.695-3.108 3.106-.694 1.622-2.74 3.17.3 2.387-2.105 2.922 1.263 2.922-1.263 2.388 2.105 3.17-.3 1.62 2.74 3.107.694.694 3.108 2.74 1.62-.299 3.17 2.105 2.389-1.264 2.92 1.264 2.922L80.6 76.13l.3 3.169-2.74 1.62-.695 3.107-3.107.695-1.62 2.74-3.17-.3-2.389 2.106z"/></g><g><path fill="#2D3E50" d="M66.9 54.127l1.187 1.047.974.858 1.292-.122 1.577-.149.805 1.362.661 1.117 1.267.283 1.544.346.346 1.545.283 1.266 1.117.661 1.362.805-.149 1.576-.122 1.292.86.974 1.045 1.188-.628 1.452-.516 1.191.516 1.192.628 1.453-1.046 1.186-.859.975.122 1.292.15 1.575-1.363.806-1.117.661-.283 1.266-.346 1.545-1.544.345-1.267.283-.66 1.118-.807 1.363-1.576-.15-1.291-.122-.975.86-1.187 1.046-1.452-.629-1.191-.516-1.192.516-1.451.63-1.188-1.048-.974-.859-1.292.122-1.576.15-.806-1.363-.66-1.118-1.267-.283-1.544-.345-.347-1.545-.282-1.266-1.117-.66-1.362-.807.149-1.575.122-1.292-.86-.975-1.045-1.186.628-1.453.516-1.192-.517-1.19-.627-1.453 1.046-1.188.859-.974-.122-1.292-.15-1.576 1.363-.805 1.117-.66.283-1.267.346-1.545 1.544-.346 1.267-.283.66-1.117.806-1.362 1.575.15 1.294.121.972-.858 1.189-1.047 1.452.63 1.19.514 1.193-.515zm.556-3.51l-3.2 1.385-3.198-1.385-2.616 2.306-3.47-.327-1.775 3-3.403.76-.76 3.403-3.001 1.775.328 3.471-2.305 2.615 1.384 3.2-1.384 3.2 2.305 2.615-.328 3.47 3 1.776.76 3.402 3.404.76 1.775 3.001 3.47-.327 2.616 2.304 3.199-1.383 3.2 1.383 2.615-2.304 3.47.327 1.776-3 3.403-.76.76-3.403 3-1.776-.327-3.47 2.305-2.616-1.384-3.2 1.384-3.199-2.305-2.615.328-3.47-3.001-1.776-.76-3.403-3.403-.76-1.775-3-3.472.327z"/></g><g><path fill="#2D3E50" d="M73.749 66.125L61.733 78.142l-2.525-2.525 12.017-12.016z"/></g><g><path fill="#2D3E50" d="M54.558 70.967l7.175 7.175 2.524-2.525-7.175-7.174z"/></g></g></svg>