<?xml version="1.0" encoding="UTF-8"?>
<svg width="60px" height="50px" viewBox="0 0 60 50" version="1.1" xmlns="http://www.w3.org/2000/svg" xmlns:xlink="http://www.w3.org/1999/xlink">
    <title>icon-sale@2x</title>
    <g id="Page-1" stroke="none" stroke-width="1" fill="none" fill-rule="evenodd">
        <g id="sale" transform="translate(6, 1)">
            <path d="M18.3919016,13.8340291 C16.0660127,13.8340291 14.1808536,15.6806842 14.1808536,17.9590673 C14.1808536,20.2366358 16.0660127,22.0832909 18.3919016,22.0832909 C20.7169588,22.0832909 22.6029495,20.2366358 22.6029495,17.9590673 C22.6029495,15.6806842 20.7169588,13.8340291 18.3919016,13.8340291" id="Fill-1"></path>
            <path d="M18.3919016,13.8340291 C16.0660127,13.8340291 14.1808536,15.6806842 14.1808536,17.9590673 C14.1808536,20.2366358 16.0660127,22.0832909 18.3919016,22.0832909 C20.7169588,22.0832909 22.6029495,20.2366358 22.6029495,17.9590673 C22.6029495,15.6806842 20.7169588,13.8340291 18.3919016,13.8340291 Z" id="Stroke-3" stroke="#0053A5" stroke-width="1.75" stroke-linecap="round" stroke-linejoin="round"></path>
            <path d="M30.6077658,25.9041645 C28.281877,25.9041645 26.3967179,27.7508197 26.3967179,30.0292027 C26.3967179,32.3067712 28.281877,34.1534263 30.6077658,34.1534263 C32.9328231,34.1534263 34.8188137,32.3067712 34.8188137,30.0292027 C34.8188137,27.7508197 32.9328231,25.9041645 30.6077658,25.9041645" id="Fill-5"></path>
            <path d="M30.6077658,25.9041645 C28.281877,25.9041645 26.3967179,27.7508197 26.3967179,30.0292027 C26.3967179,32.3067712 28.281877,34.1534263 30.6077658,34.1534263 C32.9328231,34.1534263 34.8188137,32.3067712 34.8188137,30.0292027 C34.8188137,27.7508197 32.9328231,25.9041645 30.6077658,25.9041645 Z" id="Stroke-7" stroke="#0053A5" stroke-width="1.75" stroke-linecap="round" stroke-linejoin="round"></path>
            <line x1="34.2333084" y1="14.5021485" x2="14.8420314" y2="33.4973628" id="Fill-9" fill="#0053A5"></line>
            <line x1="34.2333084" y1="14.5021485" x2="14.8420314" y2="33.4973628" id="Stroke-11" stroke="#0053A5" stroke-width="1.75" stroke-linecap="round" stroke-linejoin="round"></line>
            <path d="M49,24 C49,25.9900214 45.1648197,27.4595255 44.6642172,29.2939619 C44.1461519,31.1927502 46.7015528,34.3411058 45.7203055,36.002851 C44.7240899,37.6890337 40.6544081,37.0878729 39.257378,38.456369 C37.8603479,39.8248651 38.4740433,43.8114245 36.7527026,44.786478 C35.0563089,45.7484981 31.842308,43.2452907 29.9047603,43.7527747 C28.0312431,44.2431524 26.5310989,48 24.4995842,48 C22.4689011,48 20.9687569,44.2431524 19.0952397,43.7527747 C17.1568604,43.2452907 13.9436911,45.7484981 12.2464658,44.786478 C10.5251252,43.8114245 11.1388205,39.8248651 9.74179041,38.456369 C8.34476029,37.0878729 4.27507849,37.6890337 3.27969453,36.002851 C2.29761561,34.3402912 4.85301655,31.1927502 4.33578277,29.2939619 C3.83434875,27.4595255 0,25.9900214 0,24 C0,22.0099786 3.83434875,20.5404745 4.33495121,18.7060381 C4.85301655,16.8072498 2.29761561,13.6588942 3.27969453,11.997149 C4.27591006,10.3109663 8.34559185,10.9121271 9.74262198,9.54363099 C11.1388205,8.17513491 10.5251252,4.1885755 12.2464658,3.21270746 C13.9436911,2.25150188 17.1568604,4.7547093 19.0952397,4.24722533 C20.9687569,3.75684757 22.4689011,0 24.4995842,0 C26.5310989,0 28.0312431,3.75684757 29.9047603,4.24722533 C31.842308,4.7547093 35.0563089,2.25150188 36.7535342,3.21352204 C38.4748748,4.1885755 37.8603479,8.17513491 39.257378,9.54363099 C40.6544081,10.9121271 44.7240899,10.3109663 45.7203055,11.997149 C46.7023844,13.6597088 44.1461519,16.8072498 44.6642172,18.7060381 C45.1648197,20.5404745 49,22.0099786 49,24 Z" id="Stroke-13" stroke="#0053A5" stroke-width="1.75" stroke-linecap="round" stroke-linejoin="round"></path>
        </g>
        <g id="slices" transform="translate(0, -76)"></g>
    </g>
</svg>