<svg xmlns="http://www.w3.org/2000/svg" width="21" height="27" viewBox="0 0 21 27"><g><g><path fill="#4d4d4d" d="M11.481 24.85c.411-.015.76.31.775.722a.75.75 0 0 1-.727.772c-.007.003-.015.003-.022.003a.75.75 0 0 1-.026-1.497zm-2.967.722a.749.749 0 1 1 .75.775c-.009 0-.016 0-.023-.003a.748.748 0 0 1-.727-.772zm-2.177-.199a.691.691 0 1 1 .688.764c-.024 0-.048-.004-.072-.004a.693.693 0 0 1-.616-.76zm7.335-.618a.692.692 0 1 1 .146 1.376c-.025.003-.049.003-.073.003a.692.692 0 0 1-.073-1.379zm-9.486.226a.634.634 0 1 1 1.242.254.634.634 0 0 1-1.242-.254zm11.647-.496h.003a.635.635 0 0 1 .748.494.636.636 0 0 1-.62.76.633.633 0 0 1-.622-.507.632.632 0 0 1 .491-.747zM2.12 24.271a.575.575 0 0 1 .75-.317h.001a.578.578 0 1 1-.434 1.068.575.575 0 0 1-.317-.75zm15.778-.32a.577.577 0 0 1 .752.314.578.578 0 0 1-.536.795.577.577 0 0 1-.216-1.109zM1.052 22.554a.517.517 0 1 1 .021 1.036h-.01a.517.517 0 0 1-.01-1.036zm18.123.5a.52.52 0 1 1 1.037 0v.005h.002a.519.519 0 0 1-1.037.008c0-.002 0-.008-.002-.013zm-16.72-1.84a.464.464 0 0 1 .601.251.463.463 0 0 1-.426.637.461.461 0 0 1-.176-.888zm15.21.24a.458.458 0 0 1 .6-.254.459.459 0 1 1-.346.852.458.458 0 0 1-.254-.598zm-12.964-.83a.4.4 0 0 1 .475.311.402.402 0 0 1-.395.484.405.405 0 0 1-.395-.32.404.404 0 0 1 .315-.476zm10.841.305a.403.403 0 1 1 .395.484c-.026 0-.053-.004-.08-.008a.403.403 0 0 1-.315-.476zm-8.579-.594a.344.344 0 1 1 .074.686v.002l-.038.001a.346.346 0 0 1-.036-.689zm6.412.301a.346.346 0 0 1 .688.073.345.345 0 0 1-.344.31c-.012 0-.024 0-.036-.002a.347.347 0 0 1-.308-.38zm-4.145-.343a.229.229 0 0 1 .237.222.229.229 0 0 1-.222.238h-.008a.23.23 0 0 1-.007-.46zm2.02.222a.23.23 0 0 1 .24-.222.23.23 0 1 1-.008.46h-.008a.23.23 0 0 1-.224-.238z"/></g><g><path fill="#2D3E50" d="M10.35 17.601c-.213 0-.426-.17-.384-.47v-.939c-1.323-.042-2.517-.469-3.541-1.108L3.993 19.65c-.128.212-.384.298-.597.17l-.683-.34-.81 1.535c-.085.213-.342.256-.555.17-.213-.085-.3-.34-.171-.555l.81-1.535-.64-.34a.436.436 0 0 1-.212-.257.456.456 0 0 1 .042-.342l2.859-5.418A7.444 7.444 0 0 1 2.884 8.77c0-.256.17-.426.427-.426.256 0 .426.17.426.426 0 1.11.299 2.133.768 3.072L6.852 7.49a3.523 3.523 0 0 1 2.005-3.07V2.241A1.51 1.51 0 0 1 10.35.75a1.51 1.51 0 0 1 1.493 1.493v2.176a3.588 3.588 0 0 1 2.005 3.114l2.347 4.352a6.689 6.689 0 0 0 .768-3.072c0-.256.17-.427.427-.427.255 0 .426.171.426.427 0 1.45-.426 2.816-1.152 3.967l2.9 5.376c.129.213.044.47-.17.598l-.64.341.81 1.535c.129.171.044.427-.17.555-.17.128-.426.043-.554-.17l-.811-1.536-.682.341c-.214.128-.47.042-.598-.17l-2.431-4.523a7.846 7.846 0 0 1-3.541 1.11v.938c0 .256-.171.427-.427.427zm5.76-4.054c-.342.385-.726.726-1.11 1.067l2.304 4.266c.075-.04 1.24-.642 1.28-.682zm1.194 5.333c-.006.003-.006.003 0 0zM13.592 8.855a3.414 3.414 0 0 1-.938 1.365l1.92 3.626c.384-.34.768-.725 1.066-1.152zM9.71 4.12c.214 0 .427-.043.64-.043.213 0 .427 0 .64.043V2.242a.656.656 0 0 0-.64-.64.656.656 0 0 0-.64.64zm.64.811a2.658 2.658 0 0 0-2.645 2.645 2.659 2.659 0 0 0 2.645 2.645 2.658 2.658 0 0 0 2.645-2.645A2.658 2.658 0 0 0 10.35 4.93zM5.7 14.614c-.427-.298-.768-.682-1.11-1.067l-2.474 4.651 1.28.682zm2.346-4.394a4.335 4.335 0 0 1-.938-1.365l-2.048 3.84c.299.426.682.81 1.066 1.151zm-1.237 4.138c.896.597 1.962.938 3.157 1.024v-.81c0-.256.17-.427.427-.427.256 0 .426.171.426.426v.811c1.152-.086 2.219-.427 3.115-1.024l-1.963-3.626a3.493 3.493 0 0 1-1.621.384 3.324 3.324 0 0 1-1.58-.384z"/></g><g><path fill="#4d4d4d" d="M11.76 7.575a1.411 1.411 0 1 1-2.822 0 1.411 1.411 0 0 1 2.822 0z"/></g></g></svg>