<?xml version="1.0" encoding="UTF-8"?>
<svg width="60px" height="50px" viewBox="0 0 60 50" version="1.1" xmlns="http://www.w3.org/2000/svg" xmlns:xlink="http://www.w3.org/1999/xlink">
    <title>icon-report-total@2x</title>
    <g id="Page-1" stroke="none" stroke-width="1" fill="none" fill-rule="evenodd">
        <g id="totalview" transform="translate(2, 1)" stroke="#0053A5" stroke-linecap="round" stroke-linejoin="round" stroke-width="1.75">
            <path d="M52.5029731,24 C52.5029731,10.7452267 41.7563987,0 28.4999629,0" id="Stroke-1"></path>
            <path d="M4.49702692,24 C4.49702692,37.2547733 15.2436013,48 28.5000371,48" id="Stroke-3"></path>
            <polyline id="Stroke-5" points="9.80324088 28.4962401 4.49680408 24 0 29.3057713"></polyline>
            <polyline id="Stroke-7" points="47.1967591 19.5037599 52.5031959 24 57 18.6942287"></polyline>
            <polygon id="Stroke-9" points="17.9373014 12.2623921 37.9003186 12.2623921 37.9003186 32.3365372 33.0284095 37.4506947 17.9373014 37.4506947"></polygon>
            <polyline id="Stroke-11" points="37.9003186 31.9911125 32.8204304 31.9911125 32.8204304 37.4506205"></polyline>
            <line x1="33.2951426" y1="20.8097787" x2="22.7468911" y2="20.8097787" id="Stroke-13"></line>
            <line x1="33.2951426" y1="16.9948816" x2="22.7468911" y2="16.9948816" id="Stroke-15"></line>
            <line x1="26.913157" y1="24.6247501" x2="22.7468911" y2="24.6247501" id="Stroke-17"></line>
        </g>
        <g id="slices"></g>
    </g>
</svg>