<?xml version="1.0" encoding="UTF-8"?>
<svg width="60px" height="50px" viewBox="0 0 60 50" version="1.1" xmlns="http://www.w3.org/2000/svg" xmlns:xlink="http://www.w3.org/1999/xlink">
    <title>icon-contract@2x</title>
    <g id="Page-1" stroke="none" stroke-width="1" fill="none" fill-rule="evenodd">
        <g id="contract" transform="translate(8, 2)" stroke="#0053A5" stroke-linecap="round" stroke-linejoin="round" stroke-width="1.75">
            <polygon id="Stroke-1" points="17.3788203 12.2422556 12.2345711 8.07987262 7.09032179 12.2422556 7.09032179 0 17.3788203 0"></polygon>
            <path d="M36.1196875,38.5026044 L36.1196875,0.000562050176 L0,0.000562050176 L0,40.4256189 C0,44.056463 3.25039949,47 7.25975751,47 L36.1196875,47" id="Stroke-3"></path>
            <path d="M22.5035637,46.9999197 L39.3088206,46.9999197 C41.8995645,46.9999197 44,45.0977814 44,42.7516234 C44,40.4046625 41.8995645,38.5025241 39.3088206,38.5025241 L8.25713186,38.5025241" id="Stroke-5"></path>
            <path d="M8.25722052,46.9999197 C10.8488511,46.9999197 12.9483999,45.0977814 12.9483999,42.7516234 C12.9483999,40.4046625 10.8488511,38.5025241 8.25722052,38.5025241" id="Stroke-7"></path>
            <line x1="28.1179062" y1="24.431839" x2="7.45756551" y2="24.431839" id="Stroke-9"></line>
            <line x1="28.1179062" y1="17.6643535" x2="7.45756551" y2="17.6643535" id="Stroke-11"></line>
            <line x1="15.6177883" y1="31.1994851" x2="7.45809749" y2="31.1994851" id="Stroke-13"></line>
        </g>
        <g id="slices" transform="translate(-213, -77)"></g>
    </g>
</svg>