<svg xmlns="http://www.w3.org/2000/svg" width="18" height="22" viewBox="0 0 18 22"><g><g><path fill="#4d4d4d" d="M3.57 6.993a.35.35 0 0 1 .674.19.35.35 0 0 1-.674-.19z"/></g><g><path fill="#4d4d4d" d="M4.615 5.514a.418.418 0 1 1 .519-.655.418.418 0 0 1-.519.655z"/></g><g><path fill="#4d4d4d" d="M6.072 4.04a.487.487 0 1 1 .85-.477.487.487 0 0 1-.85.477z"/></g><g><path fill="#4d4d4d" d="M7.972 3.206a.555.555 0 1 1 .618.487h.001a.556.556 0 0 1-.619-.487z"/></g><g><path fill="#2D3E50" d="M10.877 18.653v2.315H7.595v-2.315H6.67v2.535c0 .39.317.706.707.706h3.721a.707.707 0 0 0 .706-.706v-2.535z"/></g><g><path fill="#2D3E50" d="M12.785.73c4.288 1.955 6.186 7.036 4.23 11.325a8.479 8.479 0 0 1-3.827 4.027v2.327c0 .39-.318.707-.707.707H5.993a.708.708 0 0 1-.707-.707v-2.332A8.473 8.473 0 0 1 1.228 11.5a8.491 8.491 0 0 1 .23-6.539C3.416.671 8.496-1.227 12.786.73zm-.524 15.772c-.011.004-.021.01-.033.014a8.545 8.545 0 0 1-2.995.545 8.488 8.488 0 0 1-3.021-.57v1.7h6.049zm3.7-4.927c1.692-3.708.05-8.102-3.657-9.792a7.333 7.333 0 0 0-3.056-.667A7.401 7.401 0 0 0 2.512 5.44a7.345 7.345 0 0 0-.2 5.654 7.343 7.343 0 0 0 3.858 4.138 7.338 7.338 0 0 0 5.653.2 7.343 7.343 0 0 0 4.139-3.857z"/></g><g><path fill="#4d4d4d" d="M3.635 6.927a.35.35 0 1 1 .242.432c-.016-.005-.033-.012-.05-.019a.35.35 0 0 1-.191-.413z"/></g><g><path fill="#4d4d4d" d="M4.68 5.447a.417.417 0 1 1 .519-.654.417.417 0 0 1-.518.654z"/></g><g><path fill="#4d4d4d" d="M6.138 3.974a.486.486 0 1 1 .848-.477.486.486 0 0 1-.848.477z"/></g><g><path fill="#4d4d4d" d="M8.038 3.14a.555.555 0 1 1 1.104-.131.558.558 0 0 1-.486.619l.001-.002a.552.552 0 0 1-.619-.486z"/></g><g><path fill="#4d4d4d" d="M12.19 4.754a.694.694 0 1 1 0 0z"/></g><g><path fill="#4d4d4d" d="M10.113 3.072a.626.626 0 0 1 .772-.433v.001a.623.623 0 0 1 .432.77.622.622 0 0 1-.86.4.627.627 0 0 1-.344-.738z"/></g><g><path fill="#2D3E50" d="M10.82 9.23a1.74 1.74 0 1 1-3.166-1.445 1.74 1.74 0 0 1 3.165 1.445z"/></g><g><path fill="#2D3E50" d="M9.237 8.97a.464.464 0 0 1-.242-.857l4.947-3.02a.462.462 0 1 1 .482.79l-4.946 3.02a.452.452 0 0 1-.24.068z"/></g></g></svg>