<?xml version="1.0" encoding="utf-8"?>
<!-- Generator: Adobe Illustrator 27.2.0, SVG Export Plug-In . SVG Version: 6.00 Build 0)  -->
<svg version="1.1" id="Layer_1" xmlns="http://www.w3.org/2000/svg" xmlns:xlink="http://www.w3.org/1999/xlink" x="0px" y="0px"
	 width="98.6px" height="68.9px" viewBox="0 0 98.6 68.9" style="enable-background:new 0 0 98.6 68.9;" xml:space="preserve">
<style type="text/css">
	.st0{fill:#2D3E50;}
	.st1{fill:#4D4D4D;}
</style>
<g>
	<g>
		<path class="st0" d="M49.3,42.9c-0.1,0-0.3,0-0.4-0.1l-20.7-7c-0.5-0.2-0.8-0.6-0.8-1.2s0.3-1,0.8-1.2L49,26.6
			c0.3-0.1,0.5-0.1,0.8,0l20.7,6.9c0.5,0.2,0.8,0.6,0.8,1.2s-0.3,1-0.8,1.2l-20.7,7C49.6,42.9,49.5,42.9,49.3,42.9z M32.5,34.7
			l16.8,5.7l16.8-5.7l-16.8-5.6L32.5,34.7z"/>
	</g>
	<g>
		<path class="st0" d="M49.3,48c-0.1,0-0.3,0-0.4-0.1l-20.7-7c-0.6-0.2-1-0.9-0.8-1.6c0.2-0.6,0.9-1,1.6-0.8l20.3,6.9l20.3-6.9
			c0.7-0.2,1.4,0.1,1.6,0.8c0.2,0.6-0.1,1.4-0.8,1.6l-20.7,7C49.6,48,49.5,48,49.3,48z"/>
	</g>
	<g>
		<path class="st0" d="M49.3,68.9c-0.1,0-0.3,0-0.4-0.1l-20.7-7c-0.5-0.2-0.8-0.6-0.8-1.2s0.3-1,0.8-1.2L49,52.6
			c0.3-0.1,0.5-0.1,0.8,0l20.7,6.9c0.5,0.2,0.8,0.6,0.8,1.2s-0.3,1-0.8,1.2l-20.7,7C49.6,68.9,49.5,68.9,49.3,68.9z M32.5,60.7
			l16.8,5.7l16.8-5.7l-16.8-5.6L32.5,60.7z"/>
	</g>
	<g>
		<path class="st0" d="M22,58.6c-0.1,0-0.3,0-0.4-0.1l-20.7-7C0.3,51.4,0,50.9,0,50.4s0.3-1,0.8-1.2l20.7-6.9c0.3-0.1,0.5-0.1,0.8,0
			l20.7,6.9c0.5,0.2,0.8,0.6,0.8,1.2s-0.3,1-0.8,1.2l-20.7,7C22.2,58.6,22.1,58.6,22,58.6z M5.2,50.4L22,56l16.8-5.7L22,44.8
			L5.2,50.4z"/>
	</g>
	<g>
		<path class="st0" d="M76.6,58.6c-0.1,0-0.3,0-0.4-0.1l-20.7-7c-0.5-0.2-0.8-0.6-0.8-1.2s0.3-1,0.8-1.2l20.7-6.9
			c0.3-0.1,0.5-0.1,0.8,0l20.7,6.9c0.5,0.2,0.8,0.6,0.8,1.2s-0.3,1-0.8,1.2l-20.7,7C76.9,58.6,76.8,58.6,76.6,58.6z M59.8,50.4
			L76.6,56l16.8-5.7l-16.8-5.6L59.8,50.4z"/>
	</g>
	<g>
		<g>
			<circle class="st1" cx="38.8" cy="0.5" r="0.5"/>
		</g>
		<g>
			<circle class="st1" cx="60.7" cy="9.5" r="0.7"/>
		</g>
		<g>
			<circle class="st1" cx="57.1" cy="12.4" r="0.7"/>
		</g>
		<g>
			<circle class="st1" cx="49.8" cy="13.6" r="0.7"/>
		</g>
		<g>
			<circle class="st1" cx="60.7" cy="14" r="0.9"/>
		</g>
		<g>
			<circle class="st1" cx="46.1" cy="6.3" r="0.5"/>
		</g>
		<g>
			<circle class="st1" cx="60.7" cy="0.5" r="0.5"/>
		</g>
		<g>
			<circle class="st1" cx="60.7" cy="5" r="0.7"/>
		</g>
		<g>
			<circle class="st1" cx="57.1" cy="16.9" r="0.9"/>
		</g>
		<g>
			<circle class="st1" cx="57.1" cy="3.4" r="0.5"/>
		</g>
		<g>
			<circle class="st1" cx="42.5" cy="3.4" r="0.5"/>
		</g>
		<g>
			<circle class="st1" cx="53.4" cy="15.3" r="0.7"/>
		</g>
		<g>
			<circle class="st1" cx="53.4" cy="24.2" r="1"/>
		</g>
		<g>
			<circle class="st1" cx="49.8" cy="27.1" r="1"/>
		</g>
		<g>
			<circle class="st1" cx="60.7" cy="18.4" r="1"/>
		</g>
		<g>
			<circle class="st1" cx="60.7" cy="27.4" r="1.3"/>
		</g>
		<g>
			<circle class="st1" cx="57.1" cy="30.3" r="1.3"/>
		</g>
		<g>
			<circle class="st1" cx="53.4" cy="28.7" r="1.1"/>
		</g>
		<g>
			<circle class="st1" cx="57.1" cy="25.8" r="1.1"/>
		</g>
		<g>
			<circle class="st1" cx="49.8" cy="22.6" r="0.9"/>
		</g>
		<g>
			<circle class="st1" cx="49.8" cy="18.2" r="0.7"/>
		</g>
		<g>
			<circle class="st1" cx="53.4" cy="19.8" r="0.9"/>
		</g>
		<g>
			<circle class="st1" cx="57.1" cy="21.3" r="1"/>
		</g>
		<g>
			<circle class="st1" cx="60.7" cy="22.9" r="1.1"/>
		</g>
		<g>
			<circle class="st1" cx="38.8" cy="5" r="0.7"/>
		</g>
		<g>
			<circle class="st1" cx="42.5" cy="25.8" r="1.1"/>
		</g>
		<g>
			<circle class="st1" cx="46.1" cy="24.2" r="1"/>
		</g>
		<g>
			<circle class="st1" cx="46.1" cy="28.7" r="1.1"/>
		</g>
		<g>
			<circle class="st1" cx="46.1" cy="19.8" r="0.9"/>
		</g>
		<g>
			<circle class="st1" cx="42.5" cy="21.3" r="1"/>
		</g>
		<g>
			<circle class="st1" cx="38.8" cy="22.9" r="1.1"/>
		</g>
		<g>
			<circle class="st1" cx="38.8" cy="27.4" r="1.3"/>
		</g>
		<g>
			<circle class="st1" cx="53.4" cy="6.3" r="0.5"/>
		</g>
		<g>
			<circle class="st1" cx="53.4" cy="33.2" r="1.3"/>
		</g>
		<g>
			<circle class="st1" cx="42.5" cy="30.3" r="1.3"/>
		</g>
		<g>
			<circle class="st1" cx="46.1" cy="33.2" r="1.3"/>
		</g>
		<g>
			<circle class="st1" cx="49.8" cy="31.6" r="1.1"/>
		</g>
		<g>
			<circle class="st1" cx="49.8" cy="36.1" r="1.3"/>
		</g>
		<g>
			<circle class="st1" cx="38.8" cy="9.5" r="0.7"/>
		</g>
		<g>
			<circle class="st1" cx="49.8" cy="9.2" r="0.5"/>
		</g>
		<g>
			<circle class="st1" cx="57.1" cy="7.9" r="0.7"/>
		</g>
		<g>
			<circle class="st1" cx="46.1" cy="10.8" r="0.7"/>
		</g>
		<g>
			<circle class="st1" cx="42.5" cy="7.9" r="0.7"/>
		</g>
		<g>
			<circle class="st1" cx="38.8" cy="14" r="0.9"/>
		</g>
		<g>
			<circle class="st1" cx="42.5" cy="16.9" r="0.9"/>
		</g>
		<g>
			<circle class="st1" cx="46.1" cy="15.3" r="0.7"/>
		</g>
		<g>
			<circle class="st1" cx="38.8" cy="18.4" r="1"/>
		</g>
		<g>
			<circle class="st1" cx="42.5" cy="12.4" r="0.7"/>
		</g>
		<g>
			<circle class="st1" cx="53.4" cy="10.8" r="0.7"/>
		</g>
	</g>
</g>
</svg>
