<svg xmlns="http://www.w3.org/2000/svg" width="28" height="28" viewBox="0 0 28 28">
  <g>
    <!-- Document -->
    <g>
      <rect fill="#3A5566" x="1" y="3" width="18" height="22" rx="1"/>
      <rect fill="#F5F5F0" x="2.5" y="4.5" width="15" height="19" rx="0.4"/>
    </g>
    <!-- Dot rows replacing text lines -->
    <g>
      <circle fill="#7B746D" cx="5" cy="7.5" r="0.6"/>
      <circle fill="#7B746D" cx="7" cy="7.5" r="0.5"/>
      <circle fill="#7B746D" cx="8.8" cy="7.5" r="0.45"/>
      <circle fill="#7B746D" cx="10.4" cy="7.5" r="0.35"/>
    </g>
    <g>
      <circle fill="#7B746D" cx="5" cy="10.5" r="0.6"/>
      <circle fill="#7B746D" cx="7" cy="10.5" r="0.5"/>
      <circle fill="#7B746D" cx="8.8" cy="10.5" r="0.45"/>
    </g>
    <g>
      <circle fill="#7B746D" cx="5" cy="13.5" r="0.6"/>
      <circle fill="#7B746D" cx="7" cy="13.5" r="0.5"/>
      <circle fill="#7B746D" cx="8.8" cy="13.5" r="0.45"/>
      <circle fill="#7B746D" cx="10.4" cy="13.5" r="0.35"/>
    </g>
    <g>
      <circle fill="#7B746D" cx="5" cy="16.5" r="0.6"/>
      <circle fill="#7B746D" cx="7" cy="16.5" r="0.5"/>
    </g>
    <!-- Magnifying glass -->
    <g>
      <circle fill="#F5F5F0" cx="21" cy="14" r="6" stroke="#3A5566" stroke-width="2.2"/>
      <rect fill="#3A5566" x="25" y="18" width="2.2" height="6" rx="1" transform="rotate(-45,26,21)"/>
    </g>
  </g>
</svg>