<?xml version="1.0" encoding="UTF-8"?>
<svg id="Layer_1" xmlns="http://www.w3.org/2000/svg" version="1.1" viewBox="0 0 60.9 65">
  <!-- Generator: Adobe Illustrator 29.2.1, SVG Export Plug-In . SVG Version: 2.1.0 Build 116)  -->
  <defs>
    <style>
      .st0 {
        fill: #191147;
      }
    </style>
  </defs>
  <path class="st0" d="M52.9,65h0c-3.7,0-6.8-3-6.8-6.8s0-.3,0-.4c0,0,0-.5.2-1.1.5-2.2,2.1-4.2,2.2-4.3,1.2-1.5,2.6-3.9,4-7,0-.2.3-.3.5-.3h0c.2,0,.4.1.5.3,1.4,3.1,2.7,5.5,4,7,0,0,1.7,2.1,2.2,4.3.1.5.2,1.1.2,1.1,0,.2,0,.3,0,.4,0,3.7-3,6.8-6.8,6.8ZM52.9,46.9c-1.3,2.7-2.5,4.8-3.7,6.2,0,0-1.5,1.9-2,3.9-.1.5-.1.9-.1.9,0,.1,0,.3,0,.3,0,3.2,2.6,5.8,5.8,5.8h0c3.2,0,5.8-2.6,5.8-5.8,0-.1,0-.2,0-.3,0,0,0-.5-.1-.9-.4-2-2-3.9-2-3.9-1.2-1.4-2.4-3.5-3.7-6.2Z"/>
  <path class="st0" d="M52.7,63.3c-2.8,0-5.1-2.3-5.1-5.1s.2-.5.5-.5.5.2.5.5c0,2.3,1.9,4.1,4.1,4.1s.5.2.5.5-.2.5-.5.5Z"/>
  <path class="st0" d="M.5,46.1c-.3,0-.5-.2-.5-.5V2.5c0-.3.2-.5.5-.5,6.2,0,11.2,5.1,11.2,11.3v21.5c0,6.2-5,11.3-11.2,11.3ZM1,3v42c5.4-.3,9.7-4.8,9.7-10.2V13.3C10.7,7.8,6.4,3.3,1,3Z"/>
  <path class="st0" d="M56.5,37.9h-7.3c-.3,0-.5-.2-.5-.5v-4c0-3.2-2.6-5.8-5.9-5.8h-22.7c-.2,0-.3,0-.4-.2,0-.1-.1-.3,0-.5.4-1,.5-1.9.5-2.8s-.3-2.4-.8-3.5c0-.2,0-.3,0-.5,0-.1.3-.2.4-.2h23.6c7.5,0,13.6,6.1,13.6,13.5v3.9c0,.3-.2.5-.5.5ZM49.7,36.9h6.3v-3.4c0-6.9-5.7-12.5-12.6-12.5h-22.8c.4,1.1.6,2.1.6,3.2s-.1,1.6-.4,2.5h22c3.8,0,6.9,3.1,6.9,6.8v3.5Z"/>
  <path class="st0" d="M58.3,43.8h-10.8c-1.4,0-2.6-1.2-2.6-2.6v-1.5c0-1.4,1.2-2.6,2.6-2.6h10.8c1.4,0,2.6,1.2,2.6,2.6v1.5c0,1.4-1.2,2.6-2.6,2.6ZM47.5,38.1c-.9,0-1.6.7-1.6,1.6v1.5c0,.9.7,1.6,1.6,1.6h10.8c.9,0,1.6-.7,1.6-1.6v-1.5c0-.9-.7-1.6-1.6-1.6h-10.8Z"/>
  <path class="st0" d="M11.8,33.4h-.5c-.3,0-.5-.2-.5-.5V15.3c0-.3.2-.5.5-.5h.5c5.1,0,9.2,4.2,9.2,9.3s-4.1,9.3-9.2,9.3ZM11.8,32.4h0c4.5,0,8.2-3.7,8.2-8.3s-3.7-8.3-8.2-8.3h0v16.6Z"/>
  <path class="st0" d="M34.9,20.8h-11.5c-.3,0-.5-.2-.5-.5,0-2,1.2-3.7,3-4.4v-4.8c0-.3.2-.5.5-.5h5.5c.3,0,.5.2.5.5v4.8c1.8.7,3,2.5,3,4.4s-.2.5-.5.5ZM24,19.8h10.4c-.2-1.4-1.2-2.7-2.6-3.1-.2,0-.3-.3-.3-.5v-4.7h-4.5v4.7c0,.2-.1.4-.3.5-1.4.5-2.4,1.7-2.6,3.1Z"/>
  <path class="st0" d="M34,11.4h-9.5c-3.2,0-5.7-2.6-5.7-5.7S21.3,0,24.5,0h9.5c3.2,0,5.7,2.6,5.7,5.7s-2.6,5.7-5.7,5.7ZM24.5,1c-2.6,0-4.7,2.1-4.7,4.7s2.1,4.7,4.7,4.7h9.5c2.6,0,4.7-2.1,4.7-4.7s-2.1-4.7-4.7-4.7h-9.5Z"/>
  <path class="st0" d="M39.5,25.4h-16.1c-.3,0-.5-.2-.5-.5s.2-.5.5-.5h16.1c.3,0,.5.2.5.5s-.2.5-.5.5Z"/>
</svg>