<svg xmlns="http://www.w3.org/2000/svg" width="28" height="28" viewBox="0 0 28 28">
  <g>
    <!-- Report document -->
    <g>
      <rect fill="#3A5566" x="2" y="1" width="17" height="22" rx="1"/>
      <rect fill="#F5F5F0" x="3.5" y="2.5" width="14" height="19" rx="0.4"/>
    </g>
    <!-- Header bar -->
    <g>
      <rect fill="#3A5566" x="3.5" y="2.5" width="14" height="3.5" rx="0.4"/>
    </g>
    <!-- Mini house icon in header -->
    <g>
      <path fill="#F5F5F0" d="M10.5,3.2 L7.5,5 L7.5,5.5 L13.5,5.5 L13.5,5 Z"/>
    </g>
    <!-- Chart area -->
    <g>
      <rect fill="#3A5566" x="5" y="8" width="3" height="5" rx="0.3"/>
      <rect fill="#3A5566" x="9" y="9.5" width="3" height="3.5" rx="0.3"/>
      <rect fill="#3A5566" x="13" y="7" width="3" height="6" rx="0.3"/>
    </g>
    <!-- Bottom text lines -->
    <g>
      <rect fill="#3A5566" x="5" y="15" width="11" height="0.8" rx="0.2"/>
      <rect fill="#3A5566" x="5" y="17" width="8" height="0.8" rx="0.2"/>
      <rect fill="#3A5566" x="5" y="19" width="10" height="0.8" rx="0.2"/>
    </g>
    <!-- Dots (subtle, top-right) -->
    <g>
      <circle fill="#7B746D" cx="22" cy="2" r="0.9"/>
      <circle fill="#7B746D" cx="25" cy="2" r="0.7"/>
      <circle fill="#7B746D" cx="22" cy="5" r="0.7"/>
      <circle fill="#7B746D" cx="25" cy="5" r="0.5"/>
    </g>
  </g>
</svg>
