<?xml version="1.0" encoding="UTF-8"?>
<svg width="60px" height="50px" viewBox="0 0 60 50" version="1.1" xmlns="http://www.w3.org/2000/svg" xmlns:xlink="http://www.w3.org/1999/xlink">
    <title>icon-school@2x</title>
    <g id="Page-1" stroke="none" stroke-width="1" fill="none" fill-rule="evenodd">
        <g id="school" transform="translate(1, 6)" stroke="#0053A5" stroke-linecap="square" stroke-linejoin="round" stroke-width="1.75">
            <path d="M46.8230009,15.5516713 L46.8230009,32.8598635 L43.7539161,34.4195835 C34.3654476,39.1934722 23.6348412,39.1934722 14.2456508,34.4195835 L11.1772879,32.8598635 L11.1772879,15.5516713" id="Stroke-1"></path>
            <polyline id="Stroke-3" points="4.46457628 23.2294003 4.46457628 13.0750651 26.5293542 11.0806209"></polyline>
            <polyline id="Stroke-5" points="43.4078047 21.6262813 43.4078047 30.6137639 41.342977 31.5265379"></polyline>
            <path d="M26.5294264,11.0803272 C26.5294264,10.0405138 27.635481,9.19823567 29,9.19823567 C30.364519,9.19823567 31.4705736,10.0405138 31.4705736,11.0803272 C31.4705736,12.1201405 30.364519,12.9624187 29,12.9624187 C27.635481,12.9624187 26.5294264,12.1201405 26.5294264,11.0803272 Z" id="Stroke-7"></path>
            <path d="M4.46457628,23.2294003 L4.46457628,23.2294003 C5.28112179,23.2294003 5.99731378,23.7830862 6.21607001,24.5835075 L7.50983619,29.328023 L1.41931637,29.328023 L2.71308255,24.5835075 C2.93183878,23.7830862 3.64803077,23.2294003 4.46457628,23.2294003" id="Stroke-9"></path>
            <polygon id="Stroke-11" points="0 11.0803272 29 22.1606543 58 11.0803272 29 0"></polygon>
        </g>
        <g id="slices" transform="translate(-213, -152)"></g>
    </g>
</svg>